<svg xmlns="http://www.w3.org/2000/svg" width="29.277" height="29.282" viewBox="0 0 29.277 29.282">
  <g id="Group_2836" data-name="Group 2836" transform="translate(-891.262 -4710.218)">
    <path id="Path_16" data-name="Path 16" d="M28.653,8.315A10.334,10.334,0,0,0,28,4.884,7.245,7.245,0,0,0,23.858.746,10.361,10.361,0,0,0,20.427.089C18.913.017,18.432,0,14.592,0s-4.32.017-5.829.083A10.337,10.337,0,0,0,5.333.74,6.9,6.9,0,0,0,2.824,2.376a6.963,6.963,0,0,0-1.63,2.5A10.362,10.362,0,0,0,.537,8.309C.465,9.823.449,10.3.449,14.144s.017,4.32.083,5.829A10.334,10.334,0,0,0,1.189,23.4a7.244,7.244,0,0,0,4.138,4.138,10.362,10.362,0,0,0,3.431.657c1.508.066,1.989.083,5.829.083s4.32-.016,5.829-.083a10.332,10.332,0,0,0,3.431-.657A7.234,7.234,0,0,0,27.985,23.4a10.369,10.369,0,0,0,.657-3.431c.066-1.508.083-1.989.083-5.829s-.006-4.32-.072-5.829ZM26.106,19.862a7.752,7.752,0,0,1-.486,2.624,4.692,4.692,0,0,1-2.685,2.685,7.779,7.779,0,0,1-2.624.486c-1.492.066-1.939.083-5.713.083s-4.227-.016-5.713-.083a7.748,7.748,0,0,1-2.624-.486,4.352,4.352,0,0,1-1.624-1.055,4.4,4.4,0,0,1-1.055-1.624A7.781,7.781,0,0,1,3.1,19.868c-.066-1.492-.083-1.939-.083-5.713s.016-4.227.083-5.713a7.748,7.748,0,0,1,.486-2.624A4.3,4.3,0,0,1,4.642,4.193,4.39,4.39,0,0,1,6.266,3.138a7.785,7.785,0,0,1,2.624-.486c1.492-.066,1.939-.083,5.713-.083s4.227.017,5.713.083a7.752,7.752,0,0,1,2.624.486,4.349,4.349,0,0,1,1.624,1.055A4.4,4.4,0,0,1,25.62,5.818a7.783,7.783,0,0,1,.486,2.624c.066,1.492.083,1.939.083,5.713s-.017,4.216-.083,5.707Zm0,0" transform="translate(891.313 4710.718)" fill="#fff" stroke="#fff" stroke-width="1"/>
    <path id="Path_17" data-name="Path 17" d="M132.214,124.5a7.265,7.265,0,1,0,7.265,7.265A7.267,7.267,0,0,0,132.214,124.5Zm0,11.978a4.713,4.713,0,1,1,4.713-4.713A4.714,4.714,0,0,1,132.214,136.478Zm0,0" transform="translate(773.691 4593.096)" fill="#fff" stroke="#fff" stroke-width="1"/>
  </g>
</svg>
