<svg xmlns="http://www.w3.org/2000/svg" width="29.282" height="29.282" viewBox="0 0 29.282 29.282">
  <g id="Group_2839" data-name="Group 2839" transform="translate(-979.462 -4710.218)">
    <path id="Path_19" data-name="Path 19" d="M26.76,26.931h.007V16.557c0-5.074-1.092-8.983-7.025-8.983A6.158,6.158,0,0,0,14.2,10.623h-.082V8.048H8.489V26.929h5.857V17.58c0-2.462.467-4.842,3.515-4.842,3,0,3.049,2.809,3.049,5v9.193Z" transform="translate(981.477 4712.069)" fill="#fff" stroke="#fff" stroke-width="1"/>
    <g id="Group_2837" data-name="Group 2837">
      <path id="Path_20" data-name="Path 20" d="M.4,7.977H6.26V26.859H.4Z" transform="translate(980.032 4712.141)" fill="#fff" stroke="#fff" stroke-width="1"/>
      <path id="Path_21" data-name="Path 21" d="M3.4,0a3.412,3.412,0,1,0,3.4,3.4A3.4,3.4,0,0,0,3.4,0Z" transform="translate(979.962 4710.718)" fill="#fff" stroke="#fff" stroke-width="1"/>
    </g>
  </g>
</svg>
