<svg xmlns="http://www.w3.org/2000/svg" width="23.035" height="23.035" viewBox="0 0 23.035 23.035">
  <path id="Path_3593" data-name="Path 3593" d="M16.555,23.035a6.418,6.418,0,0,1-2.2-.393,23.478,23.478,0,0,1-8.526-5.434A23.477,23.477,0,0,1,.394,8.681,6.371,6.371,0,0,1,.069,5.55,6.533,6.533,0,0,1,3.427.767,6.414,6.414,0,0,1,6.5,0a.72.72,0,0,1,.7.569l1.13,5.273a.72.72,0,0,1-.195.66L6.206,8.432a18.947,18.947,0,0,0,8.4,8.4L16.534,14.9a.72.72,0,0,1,.66-.195l5.273,1.13a.72.72,0,0,1,.569.7,6.414,6.414,0,0,1-.767,3.071,6.534,6.534,0,0,1-4.783,3.358A6.4,6.4,0,0,1,16.555,23.035ZM5.923,1.471A5.044,5.044,0,0,0,1.747,8.19a21.833,21.833,0,0,0,13.1,13.1,5.044,5.044,0,0,0,6.719-4.176l-4.289-.919L15.259,18.21a.72.72,0,0,1-.815.143A20.382,20.382,0,0,1,4.683,8.591a.72.72,0,0,1,.143-.815L6.842,5.76Z" transform="translate(0)" fill="#fff"/>
</svg>
