<svg xmlns="http://www.w3.org/2000/svg" width="22.919" height="23.029" viewBox="0 0 22.919 23.029">
  <path id="whatsapp" d="M19.83,3.347A11.414,11.414,0,0,0,1.869,17.116L.25,23.029,6.3,21.442a11.4,11.4,0,0,0,5.453,1.389h0A11.416,11.416,0,0,0,19.83,3.347ZM11.757,20.9h0a9.473,9.473,0,0,1-4.828-1.322l-.346-.206-3.59.942.958-3.5-.226-.359A9.485,9.485,0,1,1,11.757,20.9Zm5.2-7.1c-.285-.143-1.687-.832-1.948-.928s-.451-.143-.641.143-.737.928-.9,1.118-.333.214-.618.071a7.788,7.788,0,0,1-2.293-1.415A8.6,8.6,0,0,1,8.97,10.814c-.166-.286,0-.425.125-.582a8.066,8.066,0,0,0,.713-.975.524.524,0,0,0-.024-.5c-.071-.143-.641-1.546-.879-2.117-.232-.556-.467-.481-.642-.489s-.356-.01-.546-.01a1.047,1.047,0,0,0-.76.357,3.2,3.2,0,0,0-1,2.379,5.547,5.547,0,0,0,1.164,2.95,12.71,12.71,0,0,0,4.871,4.305,16.321,16.321,0,0,0,1.626.6,3.909,3.909,0,0,0,1.8.113,2.938,2.938,0,0,0,1.925-1.356,2.382,2.382,0,0,0,.166-1.356c-.071-.119-.261-.19-.546-.333Zm0,0" transform="translate(-0.25)" fill="#fff" fill-rule="evenodd"/>
</svg>
