<svg xmlns="http://www.w3.org/2000/svg" width="46.184" height="52.421" viewBox="0 0 46.184 52.421"><g transform="translate(-81 -23)"><g transform="translate(81 23)"><path d="M284.162,411.675h-4.509A3.019,3.019,0,0,1,277,410.1l-14.642-26.9L250.2,405.636h9.689a3.019,3.019,0,1,1,0,6.039H245.135a3.02,3.02,0,0,1-2.655-4.458L259.7,375.432a3.019,3.019,0,0,1,2.652-1.581h0A3.02,3.02,0,0,1,265,375.427l16.138,29.65V376.87a3.019,3.019,0,0,1,6.039,0v31.785A3.019,3.019,0,0,1,284.162,411.675Z" transform="translate(-242.116 -373.851)"/></g><path d="M8.659-2.382V-4.051H3.452v-8.711H1.53v10.38Zm10.381,0v-1.64H13.945V-6.774h4.614v-1.6H13.945v-2.752h5.094v-1.64H12.023v10.38Zm13.44,0v-10.38H30.557V-5.4L25.4-12.762H22.948v10.38H24.87v-7.862l5.607,7.862Zm6.248-1.61v-7.159h2.034a3.348,3.348,0,0,1,3.588,3.6,3.341,3.341,0,0,1-3.6,3.558Zm2.083,1.61c3.076,0,5.543-1.845,5.543-5.168s-2.435-5.212-5.527-5.212H36.805v10.38Z" transform="translate(80.832 77.803)"/></g></svg>