<svg xmlns="http://www.w3.org/2000/svg" width="1639.999" height="353.999" viewBox="0 0 1639.999 353.999">
  <g id="Group_3710" data-name="Group 3710" transform="translate(-185.638 -41.147)">
    <path id="Path_3586" data-name="Path 3586" d="M972.227,135.532c29.7,1.013,59.358,4.761,89.516,1.754,12.725-1.264,25.539-.36,38.2,1.5,27.9,4.108,53.725.076,80.463-2.353,16.333-1.482,36.2.741,51.4-6.918,30.224-15.21-12.628-22.325-26.084-20.985-23.676,2.364-44.4.97-65.165-9.675-10.82-5.557-21.77-5.655-33.558-6.744-9.653-.882-25.724-5.568-34.843-1.079-3.967,1.95-5.7,6.428-10.819,8.52-7.213,2.931-16.311,2.7-23.927,3.127-14.218.806-26.868-3.8-40.77-5.034-9.413-.828-79-11.266-82.685.142-2.637,8.15,25.092,7.452,22.923,15.537-1.514,5.611-31.356,5.241-36.543,5.992-7.9,1.155-38.264.011-38.536,11.211,21.867,6.875,42.884,7.856,65.8,7.888a21.956,21.956,0,0,0,3.28-.25l.184-.033A216.933,216.933,0,0,1,972.227,135.532Z" transform="translate(-72.451 65.294)" fill="#f5f5f5"/>
    <path id="Path_3587" data-name="Path 3587" d="M984.633,127.532c-57.062,0-113.5-1.233-170,1.264-39.19,1.72-77.222-.093-115.854-3.833-13.966-1.347-25.787-3.636-38.591-8.7-11.468-4.527-26.459-9.635-9.045-15.757,38.2-13.447,83.1,13.727,119.574-2.839C766.775,91.128,753.286,81.348,759.6,72.4c4.114-5.853,26.625-8.609,33.5-9.272,25.6-2.466,57.57-1.989,80.87,7.438C902.2,81.98,930.5,79.9,961.385,79.9c13.872,0,71.876-6.206,78.393,11.52,3.782,10.3-10.991,5.739,1.8,15.188,9.148,6.775,25.973,5.532,36.694,5.48,6.921-.031,26.232-1.564,31.318,4.766,7.231,9-3.75,14.172-11.655,15.9C1078.482,137,1001.664,127.532,984.633,127.532Z" transform="translate(504.6 -20.712)" fill="#f5f5f5"/>
    <path id="Path_3588" data-name="Path 3588" d="M237.748,105.489c24.544.838,49.061,3.936,73.993,1.45a129.236,129.236,0,0,1,31.579,1.243c23.067,3.4,44.414.054,66.517-1.946,13.511-1.225,29.93.6,42.5-5.719C477.317,87.935,441.9,82.062,430.769,83.17c-19.572,1.946-36.7.8-53.871-8.007-8.944-4.585-17.987-4.675-27.742-5.566-7.971-.729-21.266-4.6-28.8-.892-3.279,1.612-4.711,5.314-8.944,7.035-5.963,2.432-13.493,2.243-19.779,2.594-11.754.667-22.221-3.143-33.713-4.161-7.782-.685-65.31-9.322-68.354.108-2.171,6.737,20.752,6.17,18.951,12.853-1.243,4.639-25.913,4.332-30.21,4.954-6.521.955-31.624,0-31.849,9.268,18.068,5.683,35.443,6.494,54.394,6.521a18.117,18.117,0,0,0,2.7-.207l.153-.027A179.467,179.467,0,0,1,237.748,105.489Z" transform="translate(98.564 3.499)" fill="#f5f5f5"/>
    <path id="Path_3589" data-name="Path 3589" d="M398.059,140.915c-49.6,0-98.672-1.072-147.788,1.09-34.074,1.5-67.139-.072-100.726-3.324-12.141-1.18-22.428-3.161-33.56-7.566-9.971-3.936-23-8.377-7.863-13.709,33.218-11.691,72.245,11.943,103.959-2.468-3.432-5.684-15.159-14.177-9.674-21.968,3.585-5.08,23.148-7.476,29.138-8.052,22.247-2.144,50.043-1.729,70.3,6.467,24.544,9.926,49.161,8.106,76,8.106,12.06,0,62.491-5.386,68.156,10.025,3.287,8.953-9.557,4.99,1.567,13.2,7.962,5.882,22.581,4.8,31.9,4.756,6.017-.027,22.815-1.351,27.228,4.152,6.287,7.827-3.26,12.322-10.124,13.817C479.654,149.147,412.875,140.915,398.059,140.915Z" transform="translate(84.424 197.735)" fill="#f5f5f5"/>
    <path id="Path_3590" data-name="Path 3590" d="M1049.35,92.71c-23.786,0-47.313-.518-70.862.523a341.438,341.438,0,0,1-48.294-1.594,56.5,56.5,0,0,1-16.09-3.628c-4.776-1.891-11.025-4.016-3.77-6.573,15.927-5.605,34.643,5.722,49.849-1.183-1.646-2.725-7.268-6.8-4.638-10.533,1.715-2.436,11.094-3.584,13.966-3.861,10.671-1.028,24-.829,33.711,3.1,11.763,4.759,23.566,3.891,36.439,3.891,5.778,0,29.962-2.582,32.674,4.806,1.576,4.293-4.578,2.392.751,6.331,3.818,2.82,10.831,2.3,15.3,2.28,2.885-.013,10.935-.648,13.051,1.987,3.019,3.757-1.563,5.912-4.854,6.629C1088.471,96.657,1056.45,92.71,1049.35,92.71Z" transform="translate(723.217 114.797)" fill="#f5f5f5"/>
    <path id="Path_3591" data-name="Path 3591" d="M707.7,319.166c-42.772-28.032-22.953-96.809,5.542-103.117S763.949,356.027,707.7,319.166Z" transform="matrix(-0.454, 0.891, -0.891, -0.454, 2328.008, -168.479)" fill="#f5f5f5" opacity="0.67"/>
  </g>
</svg>
