<svg xmlns="http://www.w3.org/2000/svg" width="30" height="30" viewBox="0 0 30 30">
  <g id="Group_3734" data-name="Group 3734" transform="translate(-47 -683)">
    <g id="Group_3733" data-name="Group 3733">
      <g id="Group_3731" data-name="Group 3731">
        <path id="Path_8264" data-name="Path 8264" d="M8,0H22a8,8,0,0,1,8,8V22a8,8,0,0,1-8,8H8a8,8,0,0,1-8-8V8A8,8,0,0,1,8,0Z" transform="translate(47 683)" fill="#fff"/>
      </g>
    </g>
    <g id="Group_2765" data-name="Group 2765" transform="translate(2.277 2.084)">
      <path id="Path_16" data-name="Path 16" d="M20.295,5.85a7.271,7.271,0,0,0-.463-2.414A5.1,5.1,0,0,0,16.92.525,7.291,7.291,0,0,0,14.506.062C13.441.012,13.1,0,10.4,0S7.361.012,6.3.058A7.274,7.274,0,0,0,3.885.521,4.856,4.856,0,0,0,2.12,1.672,4.9,4.9,0,0,0,.973,3.433,7.29,7.29,0,0,0,.511,5.847C.46,6.912.449,7.25.449,9.952s.012,3.04.058,4.1A7.27,7.27,0,0,0,.97,16.467a5.1,5.1,0,0,0,2.912,2.912,7.292,7.292,0,0,0,2.414.463c1.061.047,1.4.058,4.1.058s3.04-.012,4.1-.058a7.27,7.27,0,0,0,2.414-.463,5.09,5.09,0,0,0,2.912-2.912,7.3,7.3,0,0,0,.463-2.414c.047-1.061.058-1.4.058-4.1s0-3.04-.051-4.1ZM18.5,13.975a5.454,5.454,0,0,1-.342,1.846,3.3,3.3,0,0,1-1.889,1.889,5.474,5.474,0,0,1-1.847.342c-1.05.047-1.364.058-4.02.058s-2.974-.012-4.02-.058a5.452,5.452,0,0,1-1.847-.342A3.062,3.062,0,0,1,3.4,16.968a3.094,3.094,0,0,1-.743-1.143,5.474,5.474,0,0,1-.342-1.846c-.047-1.05-.058-1.365-.058-4.02s.012-2.974.058-4.019a5.451,5.451,0,0,1,.342-1.846A3.025,3.025,0,0,1,3.4,2.951a3.089,3.089,0,0,1,1.143-.742,5.478,5.478,0,0,1,1.847-.342c1.05-.047,1.365-.058,4.02-.058s2.974.012,4.02.058a5.455,5.455,0,0,1,1.847.342,3.06,3.06,0,0,1,1.143.742,3.093,3.093,0,0,1,.743,1.143A5.476,5.476,0,0,1,18.5,5.94c.047,1.05.058,1.364.058,4.019s-.012,2.966-.058,4.016Zm0,0" transform="translate(49.326 685.967)" fill="#2e2e2e"/>
      <path id="Path_17" data-name="Path 17" d="M130.061,124.5a5.112,5.112,0,1,0,5.112,5.112A5.113,5.113,0,0,0,130.061,124.5Zm0,8.428a3.316,3.316,0,1,1,3.316-3.316A3.317,3.317,0,0,1,130.061,132.928Zm0,0" transform="translate(-70.333 566.31)" fill="#2e2e2e"/>
      <path id="Path_18" data-name="Path 18" d="M364.837,89.8a1.194,1.194,0,1,1-1.194-1.193A1.194,1.194,0,0,1,364.837,89.8Zm0,0" transform="translate(-298.601 600.811)" fill="#2e2e2e"/>
    </g>
  </g>
</svg>
