<svg xmlns="http://www.w3.org/2000/svg" width="30" height="30" viewBox="0 0 30 30">
  <g id="Group_3735" data-name="Group 3735" transform="translate(-99 -693.677)">
    <g id="Group_2768" data-name="Group 2768" transform="translate(8 10.677)">
      <g id="Group_3732" data-name="Group 3732">
        <rect id="Rectangle_546" data-name="Rectangle 546" width="30" height="30" rx="8" transform="translate(91 683)" fill="#fff"/>
      </g>
      <g id="Group_2766" data-name="Group 2766" transform="translate(1.553 2.084)">
        <path id="Path_19" data-name="Path 19" d="M21.346,21.193h0v-7.3c0-3.57-.769-6.321-4.943-6.321a4.333,4.333,0,0,0-3.9,2.145h-.058V7.907H8.489V21.193H12.61V14.614c0-1.732.328-3.407,2.473-3.407,2.114,0,2.145,1.977,2.145,3.518v6.468Z" transform="translate(93.047 684.672)" fill="#2e2e2e"/>
        <path id="Path_20" data-name="Path 20" d="M.4,7.977H4.522V21.262H.4Z" transform="translate(94.43 684.603)" fill="#2e2e2e"/>
        <path id="Path_21" data-name="Path 21" d="M2.39,0a2.4,2.4,0,1,0,2.39,2.39A2.39,2.39,0,0,0,2.39,0Z" transform="translate(94.498 685.967)" fill="#2e2e2e"/>
      </g>
    </g>
  </g>
</svg>
