<svg xmlns="http://www.w3.org/2000/svg" width="344.999" height="280.523" viewBox="0 0 344.999 280.523">
  <g id="Group_3725" data-name="Group 3725" transform="translate(-2017.105 67.016)">
    <g id="Group_758" data-name="Group 758" transform="translate(2043.102 -67.016)">
      <g id="Path_237" data-name="Path 237" transform="translate(1.599 0.914)">
        <path id="Path_8097" data-name="Path 8097" d="M2098.1-65.016h113.245a20.745,20.745,0,0,1,20.59,20.9V192.1a20.745,20.745,0,0,1-20.59,20.9H2098.1a20.745,20.745,0,0,1-20.59-20.9h0V-44.12A20.746,20.746,0,0,1,2098.1-65.016Z" transform="translate(-2077.506 65.016)" fill="#fafbfc"/>
      </g>
      <g id="Path_71" data-name="Path 71" transform="translate(39.408 8.274)">
        <path id="Path_8098" data-name="Path 8098" d="M2160.406-48.576c-.042-.08-.075-.16-.113-.24-.009-.033-.023-.061-.032-.091C2160.309-48.792,2160.355-48.684,2160.406-48.576Z" transform="translate(-2160.261 48.907)" fill="#080909"/>
      </g>
      <g id="Path_72" data-name="Path 72" transform="translate(118.069 8.276)">
        <path id="Path_8099" data-name="Path 8099" d="M2332.577-48.9c-.01.028-.023.056-.033.091-.038.08-.071.16-.113.24C2332.482-48.681,2332.53-48.79,2332.577-48.9Z" transform="translate(-2332.431 48.902)" fill="#080909"/>
      </g>
      <g id="Path_73" data-name="Path 73" transform="translate(36.845 3.156)">
        <path id="Path_8100" data-name="Path 8100" d="M2238.58-60.108a1.974,1.974,0,0,0-1.86,1.765c0,.091,0,.174-.009.259a7.859,7.859,0,0,1-.113,1.056c-.019.122-.038.239-.066.357v.006c-.028.145-.061.286-.1.427s-.066.253-.1.38c-.01.028-.019.056-.029.091a.709.709,0,0,1-.032.094.371.371,0,0,1-.024.075l-.042.127c-.014.042-.033.094-.052.141-.038.117-.085.228-.132.343s-.094.221-.146.329a.122.122,0,0,1-.018.046c0,.01,0,.014-.009.024-.042.091-.091.183-.137.274s-.08.159-.123.235a.37.37,0,0,1-.042.075.968.968,0,0,1-.066.117,1.658,1.658,0,0,1-.094.16c-.009.014-.014.028-.023.042s-.024.037-.038.062-.043.07-.066.1a.974.974,0,0,1-.075.117c-.019.032-.042.066-.065.1a.386.386,0,0,1-.038.052c-.028.042-.052.079-.079.117a.644.644,0,0,1-.062.079.649.649,0,0,1-.085.117c0,.009-.014.018-.019.028a.06.06,0,0,1-.023.023c-.028.042-.061.085-.094.127a.2.2,0,0,1-.037.046,1.619,1.619,0,0,1-.108.137h0c-.046.056-.094.112-.141.164a1.326,1.326,0,0,1-.146.169.016.016,0,0,1,0,.009h0a.909.909,0,0,1-.094.1c-.033.038-.07.076-.108.113a1.116,1.116,0,0,1-.1.1,2.584,2.584,0,0,1-.193.188,1.518,1.518,0,0,1-.15.141c-.033.028-.062.056-.094.084-.075.066-.155.132-.229.193s-.146.117-.221.178c-.046.038-.091.071-.137.1s-.1.079-.16.117a0,0,0,0,1,0,0h0c-.052.038-.105.074-.16.108a.338.338,0,0,1-.07.052c-.092.057-.178.117-.268.169a1.7,1.7,0,0,1-.211.132,2.292,2.292,0,0,1-.274.15c-.033.023-.07.042-.1.061a.05.05,0,0,1-.024.009c-.065.037-.132.07-.2.1a1.865,1.865,0,0,1-.182.091c-.053.027-.108.053-.164.075-.028.014-.056.023-.091.037a.383.383,0,0,1-.075.033h0c-.146.061-.286.117-.432.169s-.268.094-.4.137-.295.091-.446.127c-.3.075-.61.141-.921.188-.126.019-.258.037-.39.052-.028,0-.052,0-.08.009-.113.01-.225.019-.333.024-.131.009-.258.014-.385.019a.908.908,0,0,0-.122,0h-61.644a.913.913,0,0,0-.122,0c-.127,0-.254-.01-.385-.019-.108,0-.221-.014-.333-.024-.029,0-.052,0-.08-.009-.132-.014-.263-.033-.39-.052-.31-.046-.62-.113-.92-.188-.151-.037-.3-.08-.446-.127s-.268-.092-.4-.137-.286-.108-.432-.169h0a.392.392,0,0,1-.075-.033c-.034-.014-.062-.023-.092-.037a1.574,1.574,0,0,1-.165-.075,1.808,1.808,0,0,1-.182-.091c-.071-.033-.137-.066-.2-.1-.01,0-.014-.005-.023-.009-.033-.019-.071-.038-.1-.061a2.3,2.3,0,0,1-.275-.15,1.941,1.941,0,0,1-.21-.132c-.091-.052-.179-.112-.268-.169a.333.333,0,0,1-.071-.052c-.055-.033-.108-.07-.16-.108a.006.006,0,0,1,0,0h0c-.056-.038-.108-.076-.159-.117s-.092-.066-.137-.1c-.075-.061-.15-.117-.221-.178s-.155-.127-.229-.193c-.032-.028-.061-.056-.094-.084a1.7,1.7,0,0,1-.15-.141c-.067-.059-.131-.122-.193-.188a1.327,1.327,0,0,1-.1-.1c-.037-.037-.075-.075-.108-.113a1.033,1.033,0,0,1-.091-.1h0a.78.78,0,0,1-.075-.091c-.075-.085-.146-.169-.216-.254h0a1.521,1.521,0,0,1-.108-.137.2.2,0,0,1-.038-.046c-.033-.042-.065-.085-.094-.127a.057.057,0,0,1-.023-.023c0-.01-.014-.019-.019-.028a.7.7,0,0,1-.084-.117.547.547,0,0,1-.061-.079c-.029-.038-.052-.075-.08-.117a.475.475,0,0,1-.037-.052c-.023-.032-.045-.065-.066-.1a1.2,1.2,0,0,1-.075-.117c-.023-.033-.042-.066-.065-.1-.01-.019-.024-.038-.038-.061s-.013-.028-.023-.042c-.034-.052-.065-.105-.094-.16a1.165,1.165,0,0,1-.066-.117c-.013-.023-.028-.052-.042-.075-.042-.075-.084-.155-.122-.235s-.095-.179-.137-.274c0-.01,0-.014-.009-.024a.132.132,0,0,1-.019-.046c-.052-.108-.1-.216-.146-.329s-.094-.225-.132-.343c-.019-.046-.032-.094-.051-.141l-.043-.127a.421.421,0,0,1-.023-.075.773.773,0,0,1-.033-.094c-.01-.028-.019-.061-.029-.091-.038-.127-.075-.254-.1-.38s-.071-.282-.1-.427v-.005c-.028-.118-.045-.234-.066-.357a7.9,7.9,0,0,1-.113-1.056c0-.084-.009-.17-.009-.258a1.973,1.973,0,0,0-1.859-1.765Z" transform="translate(-2154.651 60.109)" fill="#222"/>
      </g>
      <g id="Path_74" data-name="Path 74" transform="translate(47.147 14.056)">
        <path id="Path_8101" data-name="Path 8101" d="M2177.532-36.227c.131.01.258.015.385.019-.07,0-.145,0-.216,0a1.773,1.773,0,0,1-.226-.015c-.085,0-.165-.014-.249-.019a.055.055,0,0,1-.028-.005C2177.311-36.241,2177.424-36.231,2177.532-36.227Z" transform="translate(-2177.199 36.251)" fill="#080909"/>
      </g>
      <g id="Path_75" data-name="Path 75" transform="translate(109.757 14.056)">
        <path id="Path_8102" data-name="Path 8102" d="M2314.957-36.25a.058.058,0,0,1-.028.005c-.084,0-.165.014-.249.019a1.852,1.852,0,0,1-.225.014c-.071,0-.146,0-.216,0,.127,0,.253-.01.385-.019C2314.733-36.231,2314.846-36.24,2314.957-36.25Z" transform="translate(-2314.239 36.25)" fill="#080909"/>
      </g>
      <g id="Path_76" data-name="Path 76" transform="translate(39.225 7.792)">
        <path id="Path_8103" data-name="Path 8103" d="M2159.911-49.82c0-.005,0-.01-.009-.015l-.042-.127C2159.879-49.914,2159.892-49.867,2159.911-49.82Z" transform="translate(-2159.86 49.962)" fill="#080909"/>
      </g>
      <g id="Path_77" data-name="Path 77" transform="translate(39.408 8.274)">
        <path id="Path_8104" data-name="Path 8104" d="M2160.406-48.576c-.042-.08-.075-.16-.113-.24-.009-.033-.023-.061-.032-.091C2160.309-48.792,2160.355-48.684,2160.406-48.576Z" transform="translate(-2160.261 48.907)" fill="#080909"/>
      </g>
      <g id="Path_78" data-name="Path 78" transform="translate(40.591 10.351)">
        <path id="Path_8105" data-name="Path 8105" d="M2162.969-44.209a1.716,1.716,0,0,1-.117-.15.047.047,0,0,0,.023.023C2162.9-44.294,2162.936-44.251,2162.969-44.209Z" transform="translate(-2162.851 44.359)" fill="#080909"/>
      </g>
      <g id="Path_79" data-name="Path 79" transform="translate(40.854 10.689)">
        <path id="Path_8106" data-name="Path 8106" d="M2163.646-43.369a1.422,1.422,0,0,1-.141-.16c-.028-.033-.056-.06-.08-.091h0C2163.5-43.54,2163.572-43.456,2163.646-43.369Z" transform="translate(-2163.426 43.621)" fill="#080909"/>
      </g>
      <g id="Path_80" data-name="Path 80" transform="translate(41.15 11.028)">
        <path id="Path_8107" data-name="Path 8107" d="M2164.172-42.776a1.019,1.019,0,0,1-.1-.1h0A.968.968,0,0,0,2164.172-42.776Z" transform="translate(-2164.074 42.879)" fill="#080909"/>
      </g>
      <g id="Path_81" data-name="Path 81" transform="translate(41.897 11.76)">
        <path id="Path_8108" data-name="Path 8108" d="M2166.158-40.905a2.741,2.741,0,0,1-.22-.174,1.461,1.461,0,0,1-.131-.113c-.038-.028-.066-.056-.1-.085.075.066.155.132.229.193S2166.084-40.966,2166.158-40.905Z" transform="translate(-2165.708 41.276)" fill="#080909"/>
      </g>
      <g id="Path_82" data-name="Path 82" transform="translate(42.484 12.235)">
        <path id="Path_8109" data-name="Path 8109" d="M2166.993-40.236c.052.042.1.079.16.117a.524.524,0,0,1-.046-.028C2167.068-40.176,2167.03-40.206,2166.993-40.236Z" transform="translate(-2166.993 40.236)" fill="#080909"/>
      </g>
      <g id="Path_83" data-name="Path 83" transform="translate(42.878 12.516)">
        <path id="Path_8110" data-name="Path 8110" d="M2168.123-39.452c-.054-.029-.108-.06-.16-.094,0,0,0-.005-.009-.005l-.1-.07C2167.945-39.565,2168.034-39.5,2168.123-39.452Z" transform="translate(-2167.856 39.622)" fill="#080909"/>
      </g>
      <g id="Path_84" data-name="Path 84" transform="translate(44.475 13.374)">
        <path id="Path_8111" data-name="Path 8111" d="M2171.783-37.573c-.122-.042-.24-.084-.362-.137a.405.405,0,0,1-.07-.033C2171.5-37.68,2171.637-37.624,2171.783-37.573Z" transform="translate(-2171.351 37.743)" fill="#080909"/>
      </g>
      <g id="Path_85" data-name="Path 85" transform="translate(44.906 13.546)">
        <path id="Path_8112" data-name="Path 8112" d="M2172.7-37.232c.151.046.3.091.447.127-.1-.023-.2-.052-.3-.08l-.146-.042c-.066-.019-.131-.042-.2-.066s-.141-.046-.207-.075C2172.432-37.323,2172.563-37.275,2172.7-37.232Z" transform="translate(-2172.296 37.368)" fill="#080909"/>
      </g>
      <g id="Path_86" data-name="Path 86" transform="translate(45.755 13.806)">
        <path id="Path_8113" data-name="Path 8113" d="M2175.073-36.609c.127.019.258.038.39.052-.117-.009-.235-.023-.347-.042-.014,0-.028-.005-.042-.005l-.155-.028c-.1-.015-.207-.033-.311-.057-.131-.028-.258-.056-.39-.091a.554.554,0,0,1-.065-.019C2174.455-36.722,2174.765-36.656,2175.073-36.609Z" transform="translate(-2174.153 36.799)" fill="#080909"/>
      </g>
      <g id="Path_87" data-name="Path 87" transform="translate(47.144 14.056)">
        <path id="Path_8114" data-name="Path 8114" d="M2177.53-36.227h-.057a.61.61,0,0,1-.091,0l-.16-.015a.056.056,0,0,1-.028-.005C2177.309-36.241,2177.421-36.231,2177.53-36.227Z" transform="translate(-2177.194 36.251)" fill="#080909"/>
      </g>
      <g id="Path_89" data-name="Path 89" transform="translate(110.142 14.056)">
        <path id="Path_8115" data-name="Path 8115" d="M2315.082-36.227c.108,0,.22-.014.333-.024a.049.049,0,0,1-.028.005l-.16.015a.605.605,0,0,1-.091,0Z" transform="translate(-2315.082 36.251)" fill="#080909"/>
      </g>
      <g id="Path_90" data-name="Path 90" transform="translate(110.555 13.808)">
        <path id="Path_8116" data-name="Path 8116" d="M2316.376-36.607c.31-.046.62-.112.92-.187a.538.538,0,0,1-.066.019c-.132.033-.258.061-.39.091-.1.024-.207.043-.31.057l-.155.028c-.014,0-.028.005-.042.005q-.169.028-.347.042C2316.117-36.569,2316.249-36.588,2316.376-36.607Z" transform="translate(-2315.986 36.794)" fill="#080909"/>
      </g>
      <g id="Path_91" data-name="Path 91" transform="translate(111.866 13.544)">
        <path id="Path_8117" data-name="Path 8117" d="M2319.7-37.371c-.066.028-.137.052-.207.075s-.132.046-.2.066l-.146.042c-.1.028-.2.057-.3.08.151-.037.3-.08.446-.127C2319.436-37.276,2319.567-37.325,2319.7-37.371Z" transform="translate(-2318.854 37.371)" fill="#080909"/>
      </g>
      <g id="Path_92" data-name="Path 92" transform="translate(112.716 13.376)">
        <path id="Path_8118" data-name="Path 8118" d="M2320.714-37.571c.146-.052.286-.107.432-.169a.4.4,0,0,1-.07.033C2320.953-37.655,2320.836-37.613,2320.714-37.571Z" transform="translate(-2320.714 37.74)" fill="#080909"/>
      </g>
      <g id="Path_93" data-name="Path 93" transform="translate(114.476 12.516)">
        <path id="Path_8119" data-name="Path 8119" d="M2324.567-39.452c.092-.052.179-.112.268-.169l-.1.07s0,.005-.009.005A1.7,1.7,0,0,1,2324.567-39.452Z" transform="translate(-2324.567 39.621)" fill="#080909"/>
      </g>
      <g id="Path_94" data-name="Path 94" transform="translate(114.982 12.235)">
        <path id="Path_8120" data-name="Path 8120" d="M2325.833-40.236c-.038.033-.075.061-.113.091a.322.322,0,0,1-.045.028C2325.728-40.157,2325.78-40.194,2325.833-40.236Z" transform="translate(-2325.674 40.236)" fill="#080909"/>
      </g>
      <g id="Path_95" data-name="Path 95" transform="translate(115.275 11.76)">
        <path id="Path_8121" data-name="Path 8121" d="M2326.767-41.276c-.033.028-.061.057-.1.085a1.366,1.366,0,0,1-.132.113,2.528,2.528,0,0,1-.22.174c.075-.061.15-.117.22-.178S2326.691-41.212,2326.767-41.276Z" transform="translate(-2326.316 41.276)" fill="#080909"/>
      </g>
      <g id="Path_96" data-name="Path 96" transform="translate(116.374 11.027)">
        <path id="Path_8122" data-name="Path 8122" d="M2328.819-42.88a.846.846,0,0,1-.1.1.847.847,0,0,0,.094-.1Z" transform="translate(-2328.721 42.88)" fill="#080909"/>
      </g>
      <g id="Path_97" data-name="Path 97" transform="translate(116.623 10.682)">
        <path id="Path_8123" data-name="Path 8123" d="M2329.411-43.633a1.1,1.1,0,0,1-.08.091.432.432,0,0,1-.065.071c.046-.052.091-.108.141-.164Z" transform="translate(-2329.266 43.635)" fill="#080909"/>
      </g>
      <g id="Path_99" data-name="Path 99" transform="translate(118.069 8.276)">
        <path id="Path_8124" data-name="Path 8124" d="M2332.577-48.9c-.01.028-.023.056-.033.091-.038.08-.071.16-.113.24C2332.482-48.681,2332.53-48.79,2332.577-48.9Z" transform="translate(-2332.431 48.902)" fill="#080909"/>
      </g>
      <g id="Path_100" data-name="Path 100" transform="translate(118.346 7.792)">
        <path id="Path_8125" data-name="Path 8125" d="M2333.089-49.962l-.042.127s0,.01-.009.015C2333.057-49.867,2333.071-49.914,2333.089-49.962Z" transform="translate(-2333.038 49.962)" fill="#080909"/>
      </g>
      <g id="Rectangle_1" data-name="Rectangle 1" transform="translate(68.903 4.427)">
        <rect id="Rectangle_542" data-name="Rectangle 542" width="18.827" height="1.978" rx="0.989" fill="#f1f0f1"/>
      </g>
      <g id="Path_3059" data-name="Path 3059" transform="translate(0 90.813)">
        <path id="Path_8126" data-name="Path 8126" d="M2142.368,321.463h-51.914a16.466,16.466,0,0,1-16.448-16.448V133.351a1.6,1.6,0,1,1,3.2,0V305.015a13.265,13.265,0,0,0,13.25,13.25h51.914a1.6,1.6,0,1,1,0,3.2Z" transform="translate(-2074.006 -131.752)" fill="#f93d3d"/>
      </g>
      <g id="Path_3060" data-name="Path 3060">
        <path id="Path_8127" data-name="Path 8127" d="M2230.03,135.948a1.6,1.6,0,0,1-1.6-1.6V-50.568a13.265,13.265,0,0,0-13.25-13.249H2090.454a13.265,13.265,0,0,0-13.25,13.249v41.6a1.6,1.6,0,0,1-1.6,1.6,1.6,1.6,0,0,1-1.6-1.6v-41.6a16.466,16.466,0,0,1,16.448-16.448h124.728a16.466,16.466,0,0,1,16.448,16.448V134.349A1.6,1.6,0,0,1,2230.03,135.948Z" transform="translate(-2074.006 67.016)" fill="#f93d3d"/>
      </g>
      <g id="Path_3061" data-name="Path 3061" transform="translate(95.259 231.193)">
        <path id="Path_8128" data-name="Path 8128" d="M2328.476,488.342H2284.1a1.6,1.6,0,1,1,0-3.2h44.365a13.117,13.117,0,0,0,6.025-1.47,13.254,13.254,0,0,0,7.176-11.782V440.61a1.6,1.6,0,0,1,3.2,0v31.284a16.439,16.439,0,0,1-16.394,16.448Z" transform="translate(-2282.506 -439.011)" fill="#f93d3d"/>
      </g>
    </g>
    <g id="Group_825" data-name="Group 825" transform="translate(2017.105 -38.101)">
      <g id="Group_759" data-name="Group 759" transform="translate(179.559 101.159)">
        <g id="Path_3062" data-name="Path 3062" transform="translate(0 0)">
          <path id="Path_8129" data-name="Path 8129" d="M2428.657,231.153l0,.019-6.2,5.706-3.111,3.7-9.22-7.363.843-1.022,1.291-6.849s.942-4.182,8.389-7.642c0,0,1.52-.418,3.335,2.35,0,0,2.281,1.618,2.674,3.46a8.153,8.153,0,0,1,2,7.629" transform="translate(-2410.119 -217.685)" fill="#f6f6f6"/>
        </g>
      </g>
      <g id="Group_760" data-name="Group 760" transform="translate(191.829 104.065)">
        <g id="Path_3063" data-name="Path 3063">
          <path id="Path_8130" data-name="Path 8130" d="M2437.2,240.408a.226.226,0,0,1-.153-.393l5.947-5.471a.159.159,0,0,0,.046-.083,7.929,7.929,0,0,0-1.9-7.268.516.516,0,0,1-.142-.254,5.745,5.745,0,0,0-1.687-2.5.226.226,0,1,1,.31-.329,6.161,6.161,0,0,1,1.816,2.724l.021.041a8.39,8.39,0,0,1,2.028,7.681.614.614,0,0,1-.186.328l-5.947,5.471A.228.228,0,0,1,2437.2,240.408Z" transform="translate(-2436.975 -224.046)" fill="#080909"/>
        </g>
      </g>
      <g id="Group_761" data-name="Group 761" transform="translate(179.488 112.928)">
        <g id="Path_3064" data-name="Path 3064">
          <path id="Path_8131" data-name="Path 8131" d="M2419.2,254.658a.6.6,0,0,1-.373-.131l-8.643-6.9a.6.6,0,0,1-.089-.848l.488-.59a1.872,1.872,0,0,0,.228-.818c.015-.11.029-.215.046-.307l.27-1.43a.228.228,0,1,1,.448.083l-.27,1.431c-.017.085-.029.183-.042.282a2.1,2.1,0,0,1-.327,1.051l-.487.589a.144.144,0,0,0-.032.106.142.142,0,0,0,.053.1l8.642,6.9a.144.144,0,0,0,.2-.02l2.33-2.775a.227.227,0,1,1,.348.292l-2.33,2.774A.6.6,0,0,1,2419.2,254.658Z" transform="translate(-2409.963 -243.446)" fill="#080909"/>
        </g>
      </g>
      <g id="Group_762" data-name="Group 762" transform="translate(181.083 100.956)">
        <g id="Path_3065" data-name="Path 3065">
          <path id="Path_8132" data-name="Path 8132" d="M2413.683,227.367a.222.222,0,0,1-.042,0,.228.228,0,0,1-.183-.265l.271-1.449c.035-.2.07-.4.114-.59.04-.176,1.077-4.313,8.428-7.759a.57.57,0,0,1,.312-.055c.365.041,1.353.312,2.671,1.954a.227.227,0,1,1-.355.284c-1.246-1.553-2.126-1.76-2.367-1.786a.133.133,0,0,0-.069.015c-7.155,3.353-8.17,7.408-8.178,7.447-.042.187-.075.377-.109.568l-.274,1.454A.229.229,0,0,1,2413.683,227.367Z" transform="translate(-2413.454 -217.242)" fill="#080909"/>
        </g>
      </g>
      <g id="Group_763" data-name="Group 763" transform="translate(0.22 0.083)">
        <g id="Path_3066" data-name="Path 3066">
          <path id="Path_8133" data-name="Path 8133" d="M2034.745,32.889l-.118-4.863s7.663-6.745,4.425-14.1c0,0-2.33-.789-2.212,2.3,0,0,.139,1.293-.437,1.732,0,0-2.023,1.557-2.47,1.154,0,0-1.448-1.919-1.034-11.917,0,0,.475-6.46.757-6.945,0,0,.274-2-.747-2.6,0,0-1.244-.571-2.851,6.777,0,0-.989,6.925-1.367,6.2a15.979,15.979,0,0,1-1.107-5.923,13.1,13.1,0,0,0,.442-3.734s1.619-4.244-.623-4.526a18.667,18.667,0,0,0-1.776,4.966s-1.119,4.63-.745,5.848l-.076,4.34s-.5.326-.7-.115c0,0-.192-5.613-.354-6.656,0,0,.478-6.493-.952-6.807,0,0-1.393-.594-1.677,6.983v7.323s-.356,1-.61-.385l-.811-6.961s-.846-2.91-1.651-1.508a35.828,35.828,0,0,0-.164,10.346s0,7.005,2.219,11.134l3.052,7.435Z" transform="translate(-2017.588 3.546)" fill="#f6f6f6"/>
        </g>
      </g>
      <g id="Group_764" data-name="Group 764" transform="translate(113.946 214.709)">
        <g id="Path_3067" data-name="Path 3067">
          <path id="Path_8134" data-name="Path 8134" d="M2267.013,491.421v-.026l1.057-18.229,28.023-6.945,1.271,32.419a1.428,1.428,0,0,1-1.371,1.482h-29.487l.429-7.389" transform="translate(-2266.507 -466.221)" fill="#a5a5a6"/>
        </g>
      </g>
      <g id="Group_765" data-name="Group 765" transform="translate(8.231 0)">
        <g id="Path_3068" data-name="Path 3068">
          <path id="Path_8135" data-name="Path 8135" d="M2038.28,10.968a.291.291,0,0,1-.263-.174,16.1,16.1,0,0,1-1.134-6.022,6.379,6.379,0,0,1,.134-1.231c.123-.685.235-1.443.324-2.189a5.355,5.355,0,0,1,.2-1.005,9.084,9.084,0,0,0,.306-1.407,2.522,2.522,0,0,0-.242-1.762,1.252,1.252,0,0,0-.542-.45,1.231,1.231,0,0,0-.2.392c-.027.072-.051.137-.073.183-.165.347-.324.7-.475,1.051a15.646,15.646,0,0,0-.75,2.124.227.227,0,0,1-.439-.117,16.165,16.165,0,0,1,.771-2.185c.153-.359.315-.713.482-1.066.019-.038.037-.091.059-.148.094-.255.223-.6.513-.676.46-.114.959.548,1.015.622A2.9,2.9,0,0,1,2038.295-1a9.384,9.384,0,0,1-.32,1.478,4.974,4.974,0,0,0-.183.931c-.092.755-.2,1.52-.329,2.215a5.993,5.993,0,0,0-.127,1.139,17.374,17.374,0,0,0,.952,5.5,53.444,53.444,0,0,0,1.071-5.809c.892-4.081,1.834-6.464,2.726-6.909a.519.519,0,0,1,.445-.043,2.233,2.233,0,0,1,.906,1.942.229.229,0,0,1-.215.239.229.229,0,0,1-.239-.215,1.959,1.959,0,0,0-.625-1.541c-.137.022-1.194.405-2.551,6.608-.9,6.331-1.31,6.4-1.484,6.431A.288.288,0,0,1,2038.28,10.968Z" transform="translate(-2035.122 3.728)" fill="#080909"/>
        </g>
      </g>
      <g id="Group_766" data-name="Group 766" transform="translate(2.195 1.57)">
        <g id="Path_3069" data-name="Path 3069" transform="translate(0 0)">
          <path id="Path_8136" data-name="Path 8136" d="M2023.2,14.831h-.028c-.32-.026-.444-.457-.529-.918l-.727-6.241a.227.227,0,0,1,.451-.053l.725,6.225a2.352,2.352,0,0,0,.119.451c.014-.026.028-.054.039-.083V6.932c.154-4.135.674-6.593,1.5-7.117a.538.538,0,0,1,.493-.076c1.494.323,1.177,5.833,1.092,7.007.153,1.06.329,6.007.35,6.606a.118.118,0,0,0,.068.058.325.325,0,0,0,.182-.024l.074-4.2a35.962,35.962,0,0,1,.749-5.885.227.227,0,1,1,.446.087,36.866,36.866,0,0,0-.742,5.775l-.077,4.493-.1.065a.876.876,0,0,1-.657.13.586.586,0,0,1-.374-.34l-.021-.086c0-.057-.194-5.613-.351-6.629l0-.026V6.739c.192-2.615.079-6.381-.777-6.568-.019-.005-.07-.012-.16.064-.307.258-1.043,1.428-1.241,6.706V14.3l-.013.037C2023.634,14.483,2023.479,14.831,2023.2,14.831Z" transform="translate(-2021.911 0.29)" fill="#080909"/>
        </g>
      </g>
      <g id="Group_767" data-name="Group 767" transform="translate(0 6.652)">
        <g id="Path_3070" data-name="Path 3070">
          <path id="Path_8137" data-name="Path 8137" d="M2019.77,33a.227.227,0,0,1-.2-.123c-2.141-4.148-2.168-10.81-2.168-11.092a36.346,36.346,0,0,1,.169-10.392l.025-.068c.205-.357.451-.519.724-.493.632.069,1.1,1.267,1.319,1.975a.227.227,0,1,1-.433.136c-.288-.919-.689-1.632-.935-1.659-.068-.013-.166.078-.262.236a36.34,36.34,0,0,0-.153,10.238c0,.095.028,6.862,2.118,10.91a.226.226,0,0,1-.2.331Z" transform="translate(-2017.106 -10.832)" fill="#080909"/>
        </g>
      </g>
      <g id="Group_768" data-name="Group 768" transform="translate(3.372 28.541)">
        <g id="Path_3071" data-name="Path 3071">
          <path id="Path_8138" data-name="Path 8138" d="M2038.728,67.106l-11.977-.509-2.249-5.479a.227.227,0,1,1,.42-.173l2.138,5.209,11.2.476c-.113-4.622-.113-4.622-.113-4.626,0-.179.165-.355.713-.823.087-.074.158-.133.183-.161a19.372,19.372,0,0,0,1.77-2.183.227.227,0,0,1,.373.26,19.87,19.87,0,0,1-1.811,2.233c-.031.033-.114.106-.219.2a5.457,5.457,0,0,0-.552.517c.011.492.117,4.819.117,4.819Z" transform="translate(-2024.486 -58.741)" fill="#080909"/>
        </g>
      </g>
      <g id="Group_769" data-name="Group 769" transform="translate(15.232 4.169)">
        <g id="Path_3072" data-name="Path 3072" transform="translate(0 0)">
          <path id="Path_8139" data-name="Path 8139" d="M2056.159,28.476a.225.225,0,0,1-.1-.025.229.229,0,0,1-.1-.306,10.991,10.991,0,0,0,1.256-5.549l-.006-.163a11.3,11.3,0,0,0-.429-3.228.387.387,0,0,0-.041-.091c-.146-.162-.871-.029-1.142.132a2.071,2.071,0,0,0-.682,1.965c.016.148.129,1.438-.523,1.938-.811.624-2.249,1.6-2.76,1.142-.092-.112-1.521-2.13-1.109-12.1.016-.217.38-5.144.661-6.613a.227.227,0,1,1,.446.085c-.274,1.443-.649,6.5-.653,6.553-.376,9.112.817,11.471.974,11.739a4.952,4.952,0,0,0,2.165-1.172c.385-.295.382-1.2.349-1.529a2.5,2.5,0,0,1,.9-2.4c.274-.164,1.312-.494,1.712-.045a.693.693,0,0,1,.132.244,11.627,11.627,0,0,1,.454,3.364l.006.163a11.422,11.422,0,0,1-1.3,5.773A.228.228,0,0,1,2056.159,28.476Z" transform="translate(-2050.446 -5.398)" fill="#080909"/>
        </g>
      </g>
      <g id="Group_770" data-name="Group 770" transform="translate(74.569 221.657)">
        <g id="Path_3073" data-name="Path 3073">
          <path id="Path_8140" data-name="Path 8140" d="M2219.7,508.385h-38.166a1.214,1.214,0,0,1-1.214-1.214,1.236,1.236,0,0,1,.011-.162l3.384-25.1,37.548-.485" transform="translate(-2180.32 -481.428)" fill="#a5a5a6"/>
        </g>
      </g>
      <g id="Group_771" data-name="Group 771" transform="translate(115.017 214.11)">
        <g id="Path_3074" data-name="Path 3074">
          <path id="Path_8141" data-name="Path 8141" d="M2298.1,483.239a.228.228,0,0,1-.228-.218l-.688-17.537-27.59,6.839-.287,4.947a.227.227,0,0,1-.454-.026l.306-5.281,28.456-7.054.71,18.092a.229.229,0,0,1-.218.236Z" transform="translate(-2268.851 -464.909)" fill="#080909"/>
        </g>
      </g>
      <g id="Group_772" data-name="Group 772" transform="translate(121.018 234.787)">
        <g id="Path_3075" data-name="Path 3075">
          <path id="Path_8142" data-name="Path 8142" d="M2305.194,523.907h-22.981a.228.228,0,0,1,0-.457h22.981a.414.414,0,0,0,.416-.431l-.5-12.617a.227.227,0,1,1,.453-.018l.5,12.617a.873.873,0,0,1-.869.906Z" transform="translate(-2281.985 -510.166)" fill="#080909"/>
        </g>
      </g>
      <g id="Group_773" data-name="Group 773" transform="translate(113.739 244.065)">
        <g id="Path_3076" data-name="Path 3076">
          <path id="Path_8143" data-name="Path 8143" d="M2270.436,534.936h-4.382l.246-4.249a.22.22,0,0,1,.227-.214h.012a.228.228,0,0,1,.214.24l-.219,3.767h3.9a.228.228,0,1,1,0,.455Z" transform="translate(-2266.054 -530.473)" fill="#080909"/>
        </g>
      </g>
      <g id="Group_774" data-name="Group 774" transform="translate(114.056 230.877)">
        <g id="Path_3077" data-name="Path 3077">
          <path id="Path_8144" data-name="Path 8144" d="M2266.976,514.007h-.013a.228.228,0,0,1-.214-.24l.693-11.945a.225.225,0,0,1,.237-.213h0a.228.228,0,0,1,.213.24l-.692,11.945A.228.228,0,0,1,2266.976,514.007Z" transform="translate(-2266.748 -501.608)" fill="#080909"/>
        </g>
      </g>
      <g id="Group_775" data-name="Group 775" transform="translate(103.229 248.071)">
        <g id="Path_3078" data-name="Path 3078">
          <path id="Path_8145" data-name="Path 8145" d="M2253.8,539.7h-10.522a.228.228,0,0,1,0-.457H2253.8a.228.228,0,0,1,0,.457Z" transform="translate(-2243.05 -539.241)" fill="#080909"/>
        </g>
      </g>
      <g id="Group_776" data-name="Group 776" transform="translate(74.301 221.114)">
        <g id="Path_3079" data-name="Path 3079">
          <path id="Path_8146" data-name="Path 8146" d="M2198.577,507.651h-17.909a.934.934,0,0,1-.925-1.059l3.488-25.864.2,0,37.548-.485a.226.226,0,1,1,0,.452l-37.352.482-3.435,25.476a.479.479,0,0,0,.475.543h17.91a.228.228,0,0,1,0,.457Z" transform="translate(-2179.733 -480.24)" fill="#080909"/>
        </g>
      </g>
      <g id="Group_777" data-name="Group 777" transform="translate(79.059 119.976)">
        <g id="Path_3080" data-name="Path 3080">
          <path id="Path_8147" data-name="Path 8147" d="M2205.337,258.871s18.356,3.981,44.282,97.279c0,0-12.574,11.79-42.859,12.852,0,0,18.314-22-16.612-109.383,0,0,8.235,9.8,14.782,11.523C2204.929,271.143,2206.6,271.125,2205.337,258.871Z" transform="translate(-2190.147 -258.871)" fill="#e3e2e2"/>
        </g>
      </g>
      <g id="Group_778" data-name="Group 778" transform="translate(78.71 119.217)">
        <g id="Path_3081" data-name="Path 3081">
          <path id="Path_8148" data-name="Path 8148" d="M2205.57,368.346l.339-.393c.046-.055,4.734-5.687,5.11-21.892.347-14.968-3.015-42.261-21.017-87.3l-.619-1.549,1.011,1.328c.074.1,7.482,9.747,13.866,11.468.134-.082,1.553-1.155.438-12.016l-.032-.313.307.068c.189.042,4.706,1.161,12.432,13.756,7.091,11.559,18.357,35.465,31.756,83.685l.037.132-.1.095c-.126.119-12.983,11.86-43.007,12.914ZM2190.984,260c17.565,44.338,20.847,71.3,20.487,86.159-.343,14.13-3.854,20.174-4.919,21.692,28.12-1.1,40.883-11.593,42.133-12.683-23.737-85.366-41-95.78-43.5-96.867.886,8.876.068,11.278-.5,11.917a.611.611,0,0,1-.428.245h-.03l-.03-.008C2198.948,269.08,2193.215,262.7,2190.984,260Z" transform="translate(-2189.383 -257.211)" fill="#080909"/>
        </g>
      </g>
      <g id="Group_779" data-name="Group 779" transform="translate(1.527 36.07)">
        <g id="Path_3082" data-name="Path 3082">
          <path id="Path_8149" data-name="Path 8149" d="M2112.926,159.016c17.99,12.115,45.177,101.532,45.177,101.532,7.451.411,12.325-7.451,12.325-7.451-1.633-6.13-16.413-42.232-16.413-42.232a5.214,5.214,0,0,0,4.5,0l49-47.456-9.363-7.51c-17.449,12.1-42.783,29.459-42.783,29.459-3.212-3.792-13.879-13.83-13.879-13.83a60.567,60.567,0,0,0-29.738-15.255l-15.3,1.377s-43.687-35.807-48.527-38.789L2036.47,77.106s-.475-2.533-3.937-1.727c-.411.1-12.085.149-12.085.149s7.142,56.755,13.746,58.241l37.647,37.757s7.264,26.727,7.542,34.821l.365,67.386s29.453,5.276,35.93-2.167c0,0,16.88-39.3-17.422-111.681Z" transform="translate(-2020.448 -75.221)" fill="#434342"/>
        </g>
      </g>
      <g id="Group_780" data-name="Group 780" transform="translate(1.593 35.791)">
        <g id="Path_3083" data-name="Path 3083">
          <path id="Path_8150" data-name="Path 8150" d="M2059.648,158.738a.229.229,0,0,1-.161-.066l-14.766-14.809q-1.041-1.045-2.08-2.092-2.041-2.056-4.092-4.1c-.459-.457-.926-.9-1.39-1.35-2.467-2.372-5.019-4.826-6.3-8.257-3.441-9.183-5.071-19.2-6.65-28.888q-.245-1.5-.489-2.993c-1.266-7.669-2.277-14.542-3.091-21.012l-.032-.254h.256c4.631-.021,11.659-.077,12.039-.143a3.9,3.9,0,0,1,3.088.313,2.636,2.636,0,0,1,1.119,1.593,107.783,107.783,0,0,0,3.123,11.812c.584,1.913,1.188,3.891,1.717,5.821l6.1,22.2c.579,2.11,2.253,3.258,4.026,4.474.395.271.793.544,1.188.832a.229.229,0,0,1,.049.319h0a.229.229,0,0,1-.319.049h0c-.389-.286-.784-.556-1.174-.822-1.844-1.264-3.584-2.459-4.207-4.728l-6.1-22.2c-.528-1.924-1.131-3.9-1.714-5.809a107.816,107.816,0,0,1-3.135-11.862,2.221,2.221,0,0,0-.928-1.3,3.49,3.49,0,0,0-2.733-.246c-.4.091-9.452.143-11.879.154.808,6.389,1.808,13.177,3.056,20.742q.245,1.491.49,2.993c1.574,9.665,3.2,19.659,6.628,28.8,1.25,3.335,3.651,5.644,6.195,8.089.466.447.933.9,1.395,1.354q2.056,2.039,4.095,4.1,1.039,1.046,2.079,2.091l14.766,14.809a.221.221,0,0,1-.162.381Z" transform="translate(-2020.592 -74.61)" fill="#080909"/>
        </g>
      </g>
      <g id="Group_781" data-name="Group 781" transform="translate(43.338 122.39)">
        <g id="Path_3084" data-name="Path 3084">
          <path id="Path_8151" data-name="Path 8151" d="M2129.618,346.8a.228.228,0,0,1-.229-.228l-.205-37.668c-.27-7.787-7.14-33.3-7.519-34.7l-9.636-9.664a.226.226,0,0,1,.32-.319l9.722,9.75.015.058c.073.268,7.273,26.846,7.551,34.873l.205,37.675a.229.229,0,0,1-.226.228Z" transform="translate(-2111.963 -264.155)" fill="#080909"/>
        </g>
      </g>
      <g id="Group_782" data-name="Group 782" transform="translate(60.801 203.754)">
        <g id="Path_3085" data-name="Path 3085">
          <path id="Path_8152" data-name="Path 8152" d="M2172.753,475.133c-1.476,0-2.81-.046-3.841-.078-.328-.011-.623-.021-.881-.028-1.877-.05-3.777-.183-5.615-.313-1.332-.094-2.709-.191-4.066-.255-.347-.017-.777-.018-1.276-.016-2.209-.008-5.561,0-6.7-1.579a2.381,2.381,0,0,1-.109-1.43,4.373,4.373,0,0,0,.03-.512c-.088-1.43-.069-2.9-.05-4.314.009-.714.019-1.426.015-2.134l-.077-14.158a.229.229,0,0,1,.226-.228h0a.229.229,0,0,1,.229.226l.077,14.158c0,.711-.006,1.426-.015,2.142-.019,1.41-.037,2.868.049,4.28a4.473,4.473,0,0,1-.031.58,2.882,2.882,0,0,0,.024,1.124c1,1.39,4.2,1.375,6.33,1.39.5,0,.939,0,1.3.017,1.36.064,2.741.161,4.074.255,1.833.128,3.728.262,5.594.312.258.007.555.017.884.028,4.634.154,15.49.514,17.332-3.838.041-.1,4.1-9.92,4.032-28.293a.229.229,0,0,1,.226-.228h0a.228.228,0,0,1,.229.228c.063,18.466-3.9,28.072-4.069,28.472C2185.144,474.566,2178.04,475.133,2172.753,475.133Z" transform="translate(-2150.186 -442.241)" fill="#080909"/>
        </g>
      </g>
      <g id="Group_783" data-name="Group 783" transform="translate(79.105 119.63)">
        <g id="Path_3086" data-name="Path 3086">
          <path id="Path_8153" data-name="Path 8153" d="M2212.225,339.4a.228.228,0,0,1-.228-.22c-.7-24.332-7.972-51.254-21.6-80.02l-.146-.307,15.041-.739.063.042c6.658,4.484,15.306,19.829,25.706,45.606a.227.227,0,0,1-.422.17c-10.332-25.611-18.9-40.87-25.476-45.357l-14.209.7c13.565,28.707,20.8,55.584,21.5,79.893a.228.228,0,0,1-.22.233Z" transform="translate(-2190.248 -258.115)" fill="#080909"/>
        </g>
      </g>
      <g id="Group_784" data-name="Group 784" transform="translate(121.083 169.166)">
        <g id="Path_3087" data-name="Path 3087">
          <path id="Path_8154" data-name="Path 8154" d="M2301.1,418.958c-.189,0-.377,0-.566-.016l-.158-.008-.051-.166c-.332-1.079-8.251-26.694-18.186-51.921a.227.227,0,0,1,.423-.167c9.677,24.573,17.443,49.514,18.156,51.816a11.212,11.212,0,0,0,6.525-1.925.227.227,0,0,1,.244.383A11.839,11.839,0,0,1,2301.1,418.958Z" transform="translate(-2282.128 -366.537)" fill="#080909"/>
        </g>
      </g>
      <g id="Group_785" data-name="Group 785" transform="translate(135.016 164.928)">
        <g id="Path_3088" data-name="Path 3088">
          <path id="Path_8155" data-name="Path 8155" d="M2325.783,410.586a.231.231,0,0,1-.175-.081.228.228,0,0,1,.028-.32,22.481,22.481,0,0,0,2.817-2.863c1.389-1.677-.729-6.37-1.994-9.173-.328-.728-.612-1.357-.793-1.83-1.841-4.819-3.757-9.656-5.389-13.752-2.448-6.143-4.956-12.356-7.454-18.466l-.2-.491.485.171a5.118,5.118,0,0,0,4.281.029l6.7-6.488a.226.226,0,0,1,.315.325l-6.756,6.533a5.21,5.21,0,0,1-4.22.192c2.444,5.98,4.889,12.034,7.273,18.022,1.632,4.1,3.549,8.935,5.391,13.757.176.461.457,1.085.783,1.806,1.393,3.088,3.5,7.755,1.929,9.651a22.948,22.948,0,0,1-2.875,2.92A.232.232,0,0,1,2325.783,410.586Z" transform="translate(-2312.624 -357.26)" fill="#080909"/>
        </g>
      </g>
      <g id="Group_786" data-name="Group 786" transform="translate(149.207 116.463)">
        <g id="Path_3089" data-name="Path 3089">
          <path id="Path_8156" data-name="Path 8156" d="M2343.912,297.395a.224.224,0,0,1-.163-.069.229.229,0,0,1,.006-.32l19.523-18.907c4.329-4.328,8.825-8.635,13.172-12.8l1.283-1.23q1.749-1.676,3.494-3.356c.092-.091.27-.232.479-.4.372-.3,1.243-1,1.279-1.225.035-.306-.521-.683-.926-.959-.15-.1-.291-.2-.406-.288-.174-.137-.667-.561-1.348-1.147a78.643,78.643,0,0,0-6.206-5.041c-5.061,3.509-11.152,7.715-18.1,12.5a.227.227,0,0,1-.258-.375c6.985-4.81,13.1-9.033,18.174-12.551.267-.183.685-.046,6.69,5.117.652.561,1.168,1,1.334,1.135.106.085.238.174.379.269.529.36,1.188.806,1.122,1.386-.043.376-.625.868-1.444,1.527-.2.158-.362.29-.449.373q-1.745,1.681-3.494,3.358l-1.283,1.23c-4.346,4.164-8.84,8.47-13.168,12.8l-19.525,18.909A.224.224,0,0,1,2343.912,297.395Z" transform="translate(-2343.686 -251.182)" fill="#080909"/>
        </g>
      </g>
      <g id="Group_787" data-name="Group 787" transform="translate(126.046 130.897)">
        <g id="Path_3090" data-name="Path 3090">
          <path id="Path_8157" data-name="Path 8157" d="M2303.681,298.336l-.133-.156c-1.99-2.351-6.8-7.062-10.489-10.6a.226.226,0,1,1,.313-.326c3.615,3.469,8.311,8.066,10.388,10.479,1.361-.932,10.792-7.4,21.716-14.917a.227.227,0,0,1,.258.374c-11.815,8.132-21.885,15.031-21.885,15.031Z" transform="translate(-2292.99 -282.776)" fill="#080909"/>
        </g>
      </g>
      <g id="Group_788" data-name="Group 788" transform="translate(43.445 90.472)">
        <g id="Path_3091" data-name="Path 3091" transform="translate(0 0)">
          <path id="Path_8158" data-name="Path 8158" d="M2190.919,235.694a.221.221,0,0,1-.153-.059,60.878,60.878,0,0,0-28.862-14.513l-15.365,1.383-.072-.059c-5.142-4.214-10.652-8.707-16.844-13.735l-2.386-1.937c-4.888-3.972-9.947-8.079-14.955-12.073a.227.227,0,1,1,.283-.355c5.01,3.995,10.067,8.1,14.958,12.074l2.386,1.938c6.164,5,11.65,9.478,16.773,13.677l15.235-1.371.027,0a61.335,61.335,0,0,1,29.128,14.632.228.228,0,0,1-.154.4Z" transform="translate(-2112.197 -194.295)" fill="#080909"/>
        </g>
      </g>
      <g id="Group_789" data-name="Group 789" transform="translate(76.594 103.246)">
        <g id="Path_3092" data-name="Path 3092">
          <path id="Path_8159" data-name="Path 8159" d="M2184.753,222.253s1.411,14.056,1,14.965c0,0,8.58,12.319,15.717,13.8,0,0,4.01-3.053-.417-15.178l-2.22-7.779S2190.138,227.728,2184.753,222.253Z" transform="translate(-2184.753 -222.253)" fill="#f6f6f6"/>
        </g>
      </g>
      <g id="Group_790" data-name="Group 790" transform="translate(65.821 68.649)">
        <g id="Path_3093" data-name="Path 3093">
          <path id="Path_8160" data-name="Path 8160" d="M2194.466,149.093s12.225,37.321-6.837,37.926c0,0-16.574,1.086-21-15.093,0,0-5.562,1.356-5.46-4.807a4.517,4.517,0,0,1,3.393-4.01l1.76-11.478,24.638-5.1Z" transform="translate(-2161.172 -146.529)" fill="#f6f6f6"/>
        </g>
      </g>
      <g id="Group_791" data-name="Group 791" transform="translate(155.432 27.74)">
        <g id="Path_3094" data-name="Path 3094">
          <path id="Path_8161" data-name="Path 8161" d="M2399.884,143.791s-.707,5.884-9.1,6.214c0,0-1.984-.678-5.611-10.539,0,0-4.294-8.283-5.4-9.5,0,0-3.637.371-6.34-3.8,0,0-9.152,6.9-14.332-1.553,0,0-5.887-6.691,3.669-13.972,0,0-2.808-4.578.491-8.487,0,0,6.142-5.146,7.777-3,0,0,19.923-36.517,22.652-38.945,0,0,5.269-9.45,18.8,4.015,0,0,28.668,28.6,23.041,48.741,0,0-6.153,3.929-12.418,4.119l-35.552,5.949s1.184,1.244-.553,2.552l4.508,5.437Z" transform="translate(-2357.311 -56.989)" fill="#f93d3d"/>
        </g>
      </g>
      <g id="Group_798" data-name="Group 798" transform="translate(155.437 27.441)">
        <g id="Group_792" data-name="Group 792" transform="translate(23.002 61.297)">
          <g id="Path_3095" data-name="Path 3095" transform="translate(0 0)">
            <path id="Path_8162" data-name="Path 8162" d="M2418.209,222.675l-.04-.014c-.085-.029-2.128-.827-5.751-10.676-.02-.034-3.137-6.041-4.716-8.523a.227.227,0,1,1,.383-.244c1.59,2.5,4.717,8.524,4.748,8.583,3.262,8.861,5.192,10.258,5.458,10.417,7.526-.32,8.685-5.25,8.809-5.934l-8.32-12.693-4.644-5.6.19-.143a1.856,1.856,0,0,0,.852-1.256,1.367,1.367,0,0,0-.328-.959l-.289-.309.417-.071,28.4-4.752a.227.227,0,1,1,.075.449l-28.043,4.692a1.734,1.734,0,0,1,.224.982,2.146,2.146,0,0,1-.846,1.438l4.36,5.257,8.428,12.857-.01.083c-.008.06-.828,6.079-9.312,6.415Z" transform="translate(-2407.667 -190.498)" fill="#080909"/>
          </g>
        </g>
        <g id="Group_793" data-name="Group 793" transform="translate(1.854 67.92)">
          <g id="Path_3096" data-name="Path 3096" transform="translate(0 0)">
            <path id="Path_8163" data-name="Path 8163" d="M2381.882,210.514a7.624,7.624,0,0,1-6.191-3.71c-.914.64-4.8,3.134-8.794,2.435a8.176,8.176,0,0,1-5.483-3.894.227.227,0,1,1,.381-.249,7.746,7.746,0,0,0,5.181,3.695c4.275.752,8.594-2.458,8.638-2.491l.194-.146.133.2c2.591,3.993,6.093,3.7,6.128,3.7a.227.227,0,0,1,.046.452C2382.109,210.506,2382.027,210.514,2381.882,210.514Z" transform="translate(-2361.378 -204.995)" fill="#080909"/>
          </g>
        </g>
        <g id="Group_794" data-name="Group 794" transform="translate(0 28.151)">
          <g id="Path_3097" data-name="Path 3097">
            <path id="Path_8164" data-name="Path 8164" d="M2357.547,151.384a.2.2,0,0,1-.041,0,.228.228,0,0,1-.183-.265c.479-2.638,2.25-5.159,5.265-7.493-.478-.9-2.383-5.026.612-8.573.214-.183,4.624-3.855,7.02-3.589a1.624,1.624,0,0,1,.88.355c.711-1.3,3.883-7.092,7.6-13.75a.227.227,0,0,1,.4.222c-4.211,7.532-7.716,13.954-7.751,14.018l-.168.308-.212-.28a1.1,1.1,0,0,0-.8-.423c-2.207-.249-6.606,3.422-6.65,3.458-3.125,3.707-.471,8.15-.444,8.195l.107.175-.163.124c-3.015,2.3-4.782,4.767-5.249,7.336A.228.228,0,0,1,2357.547,151.384Z" transform="translate(-2357.32 -117.951)" fill="#080909"/>
          </g>
        </g>
        <g id="Group_795" data-name="Group 795" transform="translate(22.458 5.42)">
          <g id="Path_3098" data-name="Path 3098">
            <path id="Path_8165" data-name="Path 8165" d="M2406.7,89.415a.226.226,0,0,1-.111-.029.228.228,0,0,1-.087-.31c5.827-10.385,9.92-17.376,12.166-20.778a.227.227,0,0,1,.379.25c-2.239,3.394-6.327,10.375-12.149,20.751A.228.228,0,0,1,2406.7,89.415Z" transform="translate(-2406.475 -68.197)" fill="#080909"/>
          </g>
        </g>
        <g id="Group_796" data-name="Group 796" transform="translate(36.324)">
          <g id="Path_3099" data-name="Path 3099">
            <path id="Path_8166" data-name="Path 8166" d="M2470.349,82.249a.227.227,0,0,1-.192-.105A105.475,105.475,0,0,0,2455.62,63.96c-5.167-5.144-9.7-7.543-13.478-7.127a6.809,6.809,0,0,0-4.9,2.962.227.227,0,0,1-.383-.245,7.278,7.278,0,0,1,5.232-3.169c3.918-.426,8.578,2.01,13.847,7.256a105.927,105.927,0,0,1,14.6,18.262.229.229,0,0,1-.07.313A.221.221,0,0,1,2470.349,82.249Z" transform="translate(-2436.825 -56.334)" fill="#080909"/>
          </g>
        </g>
        <g id="Group_797" data-name="Group 797" transform="translate(65.3 28.523)">
          <g id="Path_3100" data-name="Path 3100">
            <path id="Path_8167" data-name="Path 8167" d="M2500.474,150.856a.227.227,0,0,1-.037-.451l.375-.063c.568-.1,1.241-.183,1.954-.274,3.792-.486,9.521-1.219,10.579-4.9a20.093,20.093,0,0,0,.078-8.528c-.854-5.374-3.061-10.946-6.947-17.536a.227.227,0,1,1,.391-.23c3.916,6.641,6.141,12.264,7,17.7a20.2,20.2,0,0,1-.091,8.724c-1.142,3.966-7.048,4.723-10.958,5.223-.708.091-1.377.177-1.937.27l-.375.062A.189.189,0,0,1,2500.474,150.856Z" transform="translate(-2500.247 -118.764)" fill="#080909"/>
          </g>
        </g>
      </g>
      <g id="Group_799" data-name="Group 799" transform="translate(65.935 68.568)">
        <g id="Path_3101" data-name="Path 3101" transform="translate(0 0)">
          <path id="Path_8168" data-name="Path 8168" d="M2187.554,187.325c-2.937,0-16.577-.785-20.605-15.068a5.139,5.139,0,0,1-3.946-.8,5.059,5.059,0,0,1-1.579-4.27,4.8,4.8,0,0,1,3.419-4.193l1.761-11.483,24.892-5.156,3.642,2.667.023.069a88.565,88.565,0,0,1,3.827,20.31.229.229,0,0,1-.217.238.225.225,0,0,1-.237-.212v-.005a87.79,87.79,0,0,0-3.783-20.119l-3.361-2.461-24.384,5.051-1.761,11.476-.152.033a4.3,4.3,0,0,0-3.215,3.8,4.627,4.627,0,0,0,1.406,3.894,4.916,4.916,0,0,0,3.774.676l.214-.052.058.212c4.32,15.808,20.6,14.94,20.762,14.926,6.98-.222,10.506-5.462,10.485-15.573a.229.229,0,0,1,.229-.228h0a.229.229,0,0,1,.229.228c.021,10.4-3.652,15.8-10.917,16.028C2188.1,187.315,2187.9,187.325,2187.554,187.325Z" transform="translate(-2161.422 -146.351)" fill="#080909"/>
        </g>
      </g>
      <g id="Group_800" data-name="Group 800" transform="translate(95.575 84.177)">
        <g id="Ellipse_23" data-name="Ellipse 23">
          <circle id="Ellipse_98" data-name="Ellipse 98" cx="0.538" cy="0.538" r="0.538" fill="#141212"/>
        </g>
      </g>
      <g id="Group_801" data-name="Group 801" transform="translate(60.543 53.769)">
        <g id="Path_3102" data-name="Path 3102" transform="translate(0 0)">
          <path id="Path_8169" data-name="Path 8169" d="M2166.232,168c-10.672-.884-13.185-9.695-13.185-9.695-10.417-34.54,6.233-39.479,6.233-39.479,10.192-8.6,18.89-3.179,18.89-3.179,1.162,1.351,8.23,3.419,8.23,3.419,21.581,10.811,5.76,29.958,5.76,29.958s-2.524-14.076-3.629-17.526c0,0-10.9-2.513-20.587,11.655,0,0-1.542,2.327-9.313,2.362,0,0-6.065,2.013-2.126,8.029,0,0,1.035,1.444,4.193.787a20.486,20.486,0,0,0,5.235,9.271Z" transform="translate(-2149.62 -113.96)" fill="#222"/>
        </g>
      </g>
      <g id="Group_802" data-name="Group 802" transform="translate(84.741 84.828)">
        <g id="Ellipse_24" data-name="Ellipse 24">
          <circle id="Ellipse_99" data-name="Ellipse 99" cx="0.538" cy="0.538" r="0.538" fill="#141212"/>
        </g>
      </g>
      <g id="Group_803" data-name="Group 803" transform="translate(86.898 91.821)">
        <g id="Path_3103" data-name="Path 3103" transform="translate(0 0)">
          <path id="Path_8170" data-name="Path 8170" d="M2211.9,200.449c-1.5,0-3.022-.951-4.543-2.833a.228.228,0,0,1,.354-.286c1.534,1.9,3.044,2.787,4.483,2.65,2.114-.2,3.408-2.588,3.422-2.612a.227.227,0,1,1,.4.213c-.057.107-1.419,2.624-3.777,2.851C2212.125,200.443,2212.012,200.449,2211.9,200.449Z" transform="translate(-2207.306 -197.246)" fill="#080909"/>
        </g>
      </g>
      <g id="Group_804" data-name="Group 804" transform="translate(60.684 53.611)">
        <g id="Path_3104" data-name="Path 3104">
          <path id="Path_8171" data-name="Path 8171" d="M2150.156,133.15l-.033,0a.229.229,0,0,1-.192-.258,20.734,20.734,0,0,1,4.643-10.961,13.153,13.153,0,0,1,3.6-2.878,24.49,24.49,0,0,0,2.348-1.5c.494-.344,1.005-.7,1.537-1.031a17.956,17.956,0,0,1,9.215-2.9,14.6,14.6,0,0,1,6.723,1.466,12.592,12.592,0,0,1,1.188.708,10.028,10.028,0,0,0,1.382.8c.948.421,1.924.777,2.667,1.038.439.155.9.291,1.346.422a15.219,15.219,0,0,1,2.4.852,25.883,25.883,0,0,1,2.974,1.731,21.816,21.816,0,0,1,4.392,3.768,15.082,15.082,0,0,1,3.683,8.021.229.229,0,0,1-.2.254.226.226,0,0,1-.254-.193v0A14.628,14.628,0,0,0,2194,124.7a21.351,21.351,0,0,0-4.3-3.688,25.359,25.359,0,0,0-2.924-1.7,14.985,14.985,0,0,0-2.326-.822c-.452-.133-.92-.271-1.371-.429-.752-.265-1.736-.625-2.7-1.051a10.5,10.5,0,0,1-1.445-.83,12.225,12.225,0,0,0-1.142-.683,14.228,14.228,0,0,0-6.514-1.416,17.5,17.5,0,0,0-8.98,2.829c-.523.328-1.029.679-1.519,1.019a24.885,24.885,0,0,1-2.392,1.528,12.7,12.7,0,0,0-3.476,2.78,20.285,20.285,0,0,0-4.534,10.726A.229.229,0,0,1,2150.156,133.15Z" transform="translate(-2149.929 -113.615)" fill="#080909"/>
        </g>
      </g>
      <g id="Group_805" data-name="Group 805" transform="translate(77.289 70.977)">
        <g id="Path_3105" data-name="Path 3105">
          <path id="Path_8172" data-name="Path 8172" d="M2212.258,169.675l-.157-.131-.252.046q-.229-1.273-.452-2.548c-.8-4.563-1.636-9.282-2.858-13.828-.282-1.051-.322-1.051-1.354-1.114a14.474,14.474,0,0,0-2.481.078c-8.214.932-13.964,7.686-16.661,11.629a3.433,3.433,0,0,1-1.448,1.1.227.227,0,1,1-.19-.413,3.01,3.01,0,0,0,1.264-.942c2.741-4.007,8.589-10.871,16.985-11.824a15.051,15.051,0,0,1,2.558-.08c1.188.072,1.425.186,1.764,1.449,1.228,4.567,2.062,9.3,2.867,13.868q.182,1.025.362,2.048a25.84,25.84,0,0,0,1.593-2.379,27.666,27.666,0,0,0,2.682-5.835,20.728,20.728,0,0,0,.8-3.5.222.222,0,0,1,.244-.2h.011a.229.229,0,0,1,.2.255,21.147,21.147,0,0,1-.816,3.576,28.136,28.136,0,0,1-2.725,5.931,24.805,24.805,0,0,1-1.894,2.77Z" transform="translate(-2186.273 -151.624)" fill="#080909"/>
        </g>
      </g>
      <g id="Group_806" data-name="Group 806" transform="translate(60.295 74.987)">
        <g id="Path_3106" data-name="Path 3106" transform="translate(0 0)">
          <path id="Path_8173" data-name="Path 8173" d="M2166.185,193.54l-.263-.021c-10.7-.886-13.359-9.77-13.386-9.859-1.9-6.315-4.006-14.646-3.329-23.049a.227.227,0,0,1,.453.037c-.671,8.328,1.417,16.605,3.312,22.885a14.455,14.455,0,0,0,12.723,9.511L2165.42,189a18.337,18.337,0,0,1-3.6-4.991c-.017-.033-1.314-3.052-1.583-4.123a5.634,5.634,0,0,1-4.087-.925,4.631,4.631,0,0,1-1.317-4.347,5.054,5.054,0,0,1,3.023-3.847,5.5,5.5,0,0,1,1.956-.249c.274,0,.543,0,.807-.023a18.7,18.7,0,0,0,4.023-.669.227.227,0,0,1,.13.436,19.222,19.222,0,0,1-4.12.685c-.274.02-.554.021-.837.024a5.163,5.163,0,0,0-1.8.219,4.6,4.6,0,0,0-2.741,3.505,4.184,4.184,0,0,0,1.176,3.929,5.276,5.276,0,0,0,3.916.784l.037.224.217.018c.032.343,1.437,3.833,1.6,4.154a17.817,17.817,0,0,0,3.57,4.927l.064.061Z" transform="translate(-2149.077 -160.402)" fill="#080909"/>
        </g>
      </g>
      <g id="Group_807" data-name="Group 807" transform="translate(76.6 103.475)">
        <g id="Path_3107" data-name="Path 3107" transform="translate(0 0)">
          <path id="Path_8174" data-name="Path 8174" d="M2186.1,236.947a.228.228,0,0,1-.228-.217c-.2-4.634-.571-9.318-1.107-13.923h0l.451-.052c.061.218,1.021.849,1.337,1.056.14.091.254.167.32.216a22.018,22.018,0,0,0,1.96,1.282,22.3,22.3,0,0,0,4.27,1.911,21.886,21.886,0,0,0,5.211,1.029c.091.006.173.01.242.013.438.017.64.048.871.6a4.918,4.918,0,0,1,.244.923c.033.169.066.335.107.492.2.771.443,1.6.753,2.6a.227.227,0,1,1-.434.134c-.311-1.005-.552-1.837-.758-2.615-.046-.165-.079-.342-.114-.52a4.558,4.558,0,0,0-.219-.838c-.127-.308-.127-.308-.468-.32-.075,0-.16-.007-.257-.013a22.371,22.371,0,0,1-5.319-1.051,22.631,22.631,0,0,1-6.357-3.258c-.062-.046-.17-.116-.3-.2-.422-.277-.756-.507-1.005-.706.493,4.381.838,8.826,1.026,13.226a.229.229,0,0,1-.217.237Z" transform="translate(-2184.765 -222.755)" fill="#080909"/>
        </g>
      </g>
      <g id="Group_808" data-name="Group 808" transform="translate(78.483 115.693)">
        <g id="Path_3108" data-name="Path 3108">
          <path id="Path_8175" data-name="Path 8175" d="M2203.851,266.244a1.329,1.329,0,0,1-.373-.067,20.031,20.031,0,0,1-7.553-4.817,56.727,56.727,0,0,1-6.993-7.813.229.229,0,0,1,.366-.274,56.212,56.212,0,0,0,6.935,7.753,19.593,19.593,0,0,0,7.374,4.714.61.61,0,0,0,.313.039.58.58,0,0,0,.243-.238c1.051-1.53,1.434-3.6,1.177-6.317a44.76,44.76,0,0,0-2.284-9.431.227.227,0,1,1,.433-.139,45.129,45.129,0,0,1,2.3,9.527c.268,2.833-.143,5-1.255,6.617a.947.947,0,0,1-.482.415A.687.687,0,0,1,2203.851,266.244Z" transform="translate(-2188.886 -249.497)" fill="#080909"/>
        </g>
      </g>
      <g id="Group_809" data-name="Group 809" transform="translate(185.476 101.364)">
        <g id="Path_3109" data-name="Path 3109" transform="translate(0 0)">
          <path id="Path_8176" data-name="Path 8176" d="M2425.3,230.542a7.68,7.68,0,0,0,1.508,1.592s.831,1.09.952,1.33c0,0,.616,2.132,4.149,1.137l3.714-3.321s1.005-4.288-1.806-7.258c0,0-1.476-3.576-2.943-3.541,0,0-2.4-3.475-3.619-1.968,0,0-.086.1-1.064,1.483,0,0-4.656,5.711-2.6,8.224l1.032,1.408" transform="translate(-2423.07 -218.134)" fill="#f6f6f6"/>
        </g>
      </g>
      <g id="Group_810" data-name="Group 810" transform="translate(187.678 113.796)">
        <g id="Path_3110" data-name="Path 3110">
          <path id="Path_8177" data-name="Path 8177" d="M2429.229,247a.23.23,0,0,1-.141-.05,8.548,8.548,0,0,1-1.149-1.237.229.229,0,0,1,.036-.32.225.225,0,0,1,.317.032l0,0a8.176,8.176,0,0,0,1.077,1.164.228.228,0,0,1-.143.406Z" transform="translate(-2427.889 -245.345)" fill="#080909"/>
        </g>
      </g>
      <g id="Group_811" data-name="Group 811" transform="translate(189.233 115.457)">
        <g id="Path_3111" data-name="Path 3111">
          <path id="Path_8178" data-name="Path 8178" d="M2434.841,251.893a3.669,3.669,0,0,1-1.867-.467,2.485,2.485,0,0,1-.947-1.1,10.953,10.953,0,0,0-.688-.974.229.229,0,1,1,.366-.274,9.236,9.236,0,0,1,.731,1.039,2.046,2.046,0,0,0,.777.923,3.448,3.448,0,0,0,2.167.366,3.036,3.036,0,0,0,1.68-.96l.309.333a3.429,3.429,0,0,1-1.928,1.076A4.431,4.431,0,0,1,2434.841,251.893Z" transform="translate(-2431.293 -248.982)" fill="#080909"/>
        </g>
      </g>
      <g id="Group_812" data-name="Group 812" transform="translate(194.224 104.113)">
        <g id="Path_3112" data-name="Path 3112" transform="translate(0 0)">
          <path id="Path_8179" data-name="Path 8179" d="M2444.241,236.371a.226.226,0,0,1-.151-.4l.781-.7c.056-.051.158-.126.278-.212a3.067,3.067,0,0,0,.656-.57c.009-.038.942-4.2-1.751-7.046l-.046-.069a12.1,12.1,0,0,0-.859-1.677,6.436,6.436,0,0,0-.868-1.166.226.226,0,1,1,.32-.32,6.774,6.774,0,0,1,.934,1.249,12.7,12.7,0,0,1,.875,1.7c2.828,3.021,1.873,7.256,1.833,7.434-.059.251-.381.5-.829.829-.1.076-.194.14-.243.183l-.781.7A.23.23,0,0,1,2444.241,236.371Z" transform="translate(-2442.217 -224.151)" fill="#080909"/>
        </g>
      </g>
      <g id="Group_813" data-name="Group 813" transform="translate(185.248 101.114)">
        <g id="Path_3113" data-name="Path 3113" transform="translate(0 0)">
          <path id="Path_8180" data-name="Path 8180" d="M2424.681,230a.228.228,0,0,1-.182-.091l-1.356-1.849c-2.142-2.617,2.41-8.263,2.6-8.5.906-1.287,1.051-1.468,1.073-1.493a1.274,1.274,0,0,1,1-.477c.876.015,1.686.969,2.337,1.736l.051.06a.227.227,0,0,1-.346.294l-.051-.061c-.561-.66-1.328-1.564-2-1.575a.889.889,0,0,0-.651.329s-.127.156-1.047,1.462c-.055.068-4.523,5.608-2.608,7.95l1.363,1.859a.229.229,0,0,1-.048.319h0A.226.226,0,0,1,2424.681,230Z" transform="translate(-2422.571 -217.588)" fill="#080909"/>
        </g>
      </g>
      <g id="Group_814" data-name="Group 814" transform="translate(187.336 113.27)">
        <g id="Path_3114" data-name="Path 3114">
          <path id="Path_8181" data-name="Path 8181" d="M2427.141,244.193" transform="translate(-2427.141 -244.193)" fill="none" stroke="#080909" stroke-linecap="round" stroke-miterlimit="10" stroke-width="1"/>
        </g>
      </g>
      <g id="Group_815" data-name="Group 815" transform="translate(195.346 110.186)">
        <g id="Path_3115" data-name="Path 3115">
          <path id="Path_8182" data-name="Path 8182" d="M2444.672,237.444" transform="translate(-2444.672 -237.444)" fill="none" stroke="#080909" stroke-linecap="round" stroke-miterlimit="10" stroke-width="1"/>
        </g>
      </g>
      <g id="Group_816" data-name="Group 816" transform="translate(189.217 115.364)">
        <g id="Path_3116" data-name="Path 3116">
          <path id="Path_8183" data-name="Path 8183" d="M2431.258,248.778" transform="translate(-2431.258 -248.778)" fill="none" stroke="#080909" stroke-linecap="round" stroke-miterlimit="10" stroke-width="1"/>
        </g>
      </g>
      <g id="Group_817" data-name="Group 817" transform="translate(161.622 82.179)">
        <g id="Path_3117" data-name="Path 3117" transform="translate(0 0)">
          <path id="Path_8184" data-name="Path 8184" d="M2380.356,189.673a.229.229,0,0,1-.131-.042c-6.5-4.574-9.329-13.1-9.357-13.19a.227.227,0,0,1,.433-.14c.027.084,2.814,8.473,9.186,12.959a.227.227,0,0,1-.131.413Z" transform="translate(-2370.858 -176.144)" fill="#080909"/>
        </g>
      </g>
      <g id="Group_818" data-name="Group 818" transform="translate(169.383 71.136)">
        <g id="Path_3118" data-name="Path 3118" transform="translate(0 0)">
          <path id="Path_8185" data-name="Path 8185" d="M2403.334,174.513a.229.229,0,0,1-.144-.052c-13.351-10.919-15.324-22.113-15.342-22.224a.229.229,0,0,1,.188-.261.226.226,0,0,1,.261.184v0c.018.11,1.973,11.145,15.181,21.947a.227.227,0,0,1-.144.4Z" transform="translate(-2387.845 -151.973)" fill="#080909"/>
        </g>
      </g>
      <g id="Group_819" data-name="Group 819" transform="translate(188.134 39.676)">
        <g id="Path_3119" data-name="Path 3119">
          <path id="Path_8186" data-name="Path 8186" d="M2446.037,116.205a.23.23,0,0,1-.171-.078c-15.451-17.738-16.963-32.618-16.977-32.766a.227.227,0,0,1,.453-.042c.013.147,1.52,14.891,16.867,32.51a.228.228,0,0,1-.171.376Z" transform="translate(-2428.888 -83.113)" fill="#080909"/>
        </g>
      </g>
      <g id="Group_820" data-name="Group 820" transform="translate(206.456 73.952)">
        <g id="Path_3120" data-name="Path 3120">
          <path id="Path_8187" data-name="Path 8187" d="M2482.771,170.385a.217.217,0,0,1-.114-.031c-4.043-2.356-13.215-11.448-13.6-11.833a.226.226,0,0,1,.32-.32c.1.095,9.519,9.437,13.512,11.764a.225.225,0,0,1-.114.42Z" transform="translate(-2468.989 -158.135)" fill="#080909"/>
        </g>
      </g>
      <g id="Group_821" data-name="Group 821" transform="translate(192.094 32.07)">
        <g id="Path_3121" data-name="Path 3121">
          <path id="Path_8188" data-name="Path 8188" d="M2474.346,119.635a.235.235,0,0,1-.122-.036c-18.344-11.708-27.335-25.459-31.65-34.932-4.678-10.274-5.018-17.89-5.021-17.965a.229.229,0,0,1,.219-.235.241.241,0,0,1,.235.218c0,.075.343,7.619,4.991,17.818,4.289,9.412,13.231,23.072,31.47,34.714a.226.226,0,0,1-.123.418Z" transform="translate(-2437.553 -66.467)" fill="#080909"/>
        </g>
      </g>
      <g id="Group_822" data-name="Group 822" transform="translate(194.298 30.399)">
        <g id="Path_3122" data-name="Path 3122">
          <path id="Path_8189" data-name="Path 8189" d="M2463.7,80.492a.231.231,0,0,1-.181-.089c-13.471-17.486-20.822-17.133-20.9-17.136a.227.227,0,0,1-.037-.452c.3-.029,7.63-.429,21.3,17.312a.226.226,0,0,1-.179.365Z" transform="translate(-2442.379 -62.81)" fill="#080909"/>
        </g>
      </g>
      <g id="Group_823" data-name="Group 823" transform="translate(217.268 50.262)">
        <g id="Path_3123" data-name="Path 3123">
          <path id="Path_8190" data-name="Path 8190" d="M2503.856,126.12a.228.228,0,0,1-.22-.172c-1.705-6.822-10.844-19.172-10.936-19.3a.228.228,0,0,1,.046-.319.226.226,0,0,1,.317.041l0,0c.091.124,9.285,12.548,11.011,19.458a.228.228,0,0,1-.165.274A.216.216,0,0,1,2503.856,126.12Z" transform="translate(-2492.655 -106.284)" fill="#080909"/>
        </g>
      </g>
      <g id="Group_824" data-name="Group 824" transform="translate(229.098 72.314)">
        <g id="Path_3124" data-name="Path 3124" transform="translate(0 0)">
          <path id="Path_8191" data-name="Path 8191" d="M2520.554,166.434h-.012a.228.228,0,0,1-.215-.238c.132-2.579-1.756-11.282-1.775-11.369a.227.227,0,0,1,.444-.1c.079.36,1.919,8.85,1.785,11.489A.229.229,0,0,1,2520.554,166.434Z" transform="translate(-2518.547 -154.552)" fill="#080909"/>
        </g>
      </g>
    </g>
    <path id="Path_8192" data-name="Path 8192" d="M2619.216,155.859c.072-.142.114-.219.114-.219l-.006-.06q.314-.776.69-1.545c1.668-3.385,5.8-5.306,9.562-5.31a11.981,11.981,0,0,1,3.369.457c1.542.693,5.31,3.093,6.291,10.24a11.47,11.47,0,0,1-1.362,7.173,8.624,8.624,0,0,1,3.313,4.538c1.773,4.791,10.64,5.856,11.527,12.244s-8.335,17.924-18.089,10.47c-7.425-5.674-6.218-16.487-5.218-21.329a13.724,13.724,0,0,1-7.2-1.564,9.07,9.07,0,0,1-4.609-6.753A24.772,24.772,0,0,1,2619.216,155.859Z" transform="translate(-326.143 -117.173)" fill="#222"/>
    <path id="Path_8193" data-name="Path 8193" d="M2654.156,227.663a10.847,10.847,0,0,1-6.6-2.446c-6.181-4.723-6.509-12.884-5.7-18.895l.116-.006.113.018c-.808,5.972-.49,14.045,5.6,18.7,3.047,2.328,6.332,2.977,9.5,1.873,4.4-1.528,7.321-5.846,8.178-9.21a.113.113,0,0,1,.22.054c-.871,3.422-3.846,7.813-8.323,9.37A9.424,9.424,0,0,1,2654.156,227.663Z" transform="translate(-339.141 -148.453)" fill="#080909"/>
    <path id="Path_8194" data-name="Path 8194" d="M2629.849,195.246h-.02a.114.114,0,0,1-.091-.132c.065-.382.137-.768.214-1.148a13.734,13.734,0,0,1-7.116-1.579,10.31,10.31,0,0,1-3.966-4.22.114.114,0,1,1,.206-.1,10.082,10.082,0,0,0,3.878,4.124c2.429,1.468,5.152,1.514,7.139,1.547l.137,0-.028.137c-.087.421-.168.851-.24,1.276A.114.114,0,0,1,2629.849,195.246Z" transform="translate(-326.828 -138.507)" fill="#080909"/>
    <path id="Path_8195" data-name="Path 8195" d="M2617.637,177.551a.115.115,0,0,1-.111-.086c-.52-2.037-.079-4.395.474-6.64a.113.113,0,1,1,.22.053c-.548,2.216-.982,4.54-.474,6.529a.114.114,0,0,1-.082.137A.11.11,0,0,1,2617.637,177.551Z" transform="translate(-325.977 -129.13)" fill="#080909"/>
    <path id="Path_8196" data-name="Path 8196" d="M2619.881,157.321a.122.122,0,0,1-.034-.005.114.114,0,0,1-.075-.143c.156-.5.33-1.005.514-1.49.049-.1.084-.165.1-.2l0-.053.01-.027c.208-.516.442-1.038.693-1.553,1.558-3.159,5.531-5.368,9.664-5.374a12.084,12.084,0,0,1,3.4.461l.1.046a.114.114,0,0,1,.053.152h0a.115.115,0,0,1-.153.053l-.08-.037a11.875,11.875,0,0,0-3.321-.447c-4.05.005-7.939,2.162-9.46,5.246-.245.5-.472,1.009-.676,1.511l.007.068-.017.032s-.042.077-.112.215c-.179.47-.35.967-.5,1.466A.114.114,0,0,1,2619.881,157.321Z" transform="translate(-327.318 -117.037)" fill="#080909"/>
    <path id="Path_8197" data-name="Path 8197" d="M2673.311,185.3a.115.115,0,0,1-.113-.094c-.594-3.343-3.456-5.176-6.225-6.949-2.292-1.467-4.458-2.854-5.254-5.008a8.529,8.529,0,0,0-3.266-4.48l-.092-.058.053-.095a11.429,11.429,0,0,0,1.348-7.1c-.659-4.811-2.6-7.422-4.122-8.767a.114.114,0,0,1-.01-.161h0a.114.114,0,0,1,.161-.011h0c1.545,1.371,3.527,4.027,4.2,8.906a11.65,11.65,0,0,1-1.325,7.151,8.839,8.839,0,0,1,3.267,4.536c.771,2.083,2.906,3.449,5.163,4.9,2.81,1.8,5.715,3.659,6.327,7.1a.114.114,0,0,1-.092.133Z" transform="translate(-346.781 -119.25)" fill="#080909"/>
    <path id="Path_8198" data-name="Path 8198" d="M2640.478,193.424a10.626,10.626,0,0,0,3.335-.548,16.773,16.773,0,0,0,7.2-5.158.532.532,0,1,0-.825-.672h0l-.016.02h0a16.35,16.35,0,0,1-2.3,2.28,12.006,12.006,0,0,1-7.386,3.015.533.533,0,0,0-.532.533h0a.532.532,0,0,0,.532.533h0Z" transform="translate(-338.279 -137.88)" fill="#fff"/>
    <path id="Path_8199" data-name="Path 8199" d="M2640.339,196.944a.647.647,0,0,1-.647-.646.648.648,0,0,1,.647-.646,11.218,11.218,0,0,0,6.7-2.51.114.114,0,0,1,.16.023h0a.114.114,0,0,1-.023.159h0a11.439,11.439,0,0,1-6.838,2.556.418.418,0,0,0,0,.836h0a10.434,10.434,0,0,0,2.8-.392.114.114,0,1,1,.062.22,10.641,10.641,0,0,1-2.861.4Z" transform="translate(-338.141 -141.285)" fill="#080909"/>
    <path id="Path_8200" data-name="Path 8200" d="M2650.19,192.525a.115.115,0,0,1-.105-.07.113.113,0,0,1,.061-.148h0a17.209,17.209,0,0,0,6.272-4.8.42.42,0,0,0-.059-.59.411.411,0,0,0-.307-.091.416.416,0,0,0-.282.152,16.077,16.077,0,0,1-2.047,2.075.114.114,0,0,1-.16-.011h0a.115.115,0,0,1,.012-.161h0a15.931,15.931,0,0,0,2-2.024.657.657,0,0,1,.452-.257.645.645,0,0,1,.566,1.051,17.125,17.125,0,0,1-6.363,4.864A.1.1,0,0,1,2650.19,192.525Z" transform="translate(-343.779 -137.742)" fill="#080909"/>
    <path id="Path_8201" data-name="Path 8201" d="M2632.358,187.53s-1.159,5.611-.947,7.781c.189,1.932-.6,3.774-.91,5.542a4.561,4.561,0,0,1-3.448,3.418,4.159,4.159,0,0,1-.95.112c-4.592.022-.872-8.89-.439-11.016a81.281,81.281,0,0,0,.535-8.708Z" transform="translate(-329.527 -136.69)" fill="#f6f6f6"/>
    <path id="Path_8202" data-name="Path 8202" d="M2628.184,191.588h-.011a.114.114,0,0,1-.1-.124c.247-2.737.315-6.974.316-7.016l0-.176,6.4,2.982-.017.088c0,.011-.218,1.132-.433,2.539a.114.114,0,1,1-.225-.035c.183-1.185.365-2.169.418-2.459l-5.918-2.759c-.016.832-.095,4.432-.314,6.857A.114.114,0,0,1,2628.184,191.588Z" transform="translate(-331.828 -136.479)" fill="#080909"/>
    <path id="Path_8203" data-name="Path 8203" d="M2625.957,211.914a2.114,2.114,0,0,1-1.809-.8c-1.312-1.763.008-6.082.8-8.661.191-.627.357-1.169.445-1.544a.112.112,0,0,1,.134-.085h0a.114.114,0,0,1,.085.137h0c-.091.382-.257.928-.449,1.557-.777,2.539-2.074,6.788-.831,8.458a1.875,1.875,0,0,0,1.625.711h.016a3.915,3.915,0,0,0,2.2-.675,6.311,6.311,0,0,0,2.8-4.989c-.009-.844.066-1.709.137-2.545.057-.662.117-1.347.134-2.014a27.311,27.311,0,0,1,.3-2.992l.008-.057a.121.121,0,0,1,.129-.1.115.115,0,0,1,.1.129l-.008.057a26.914,26.914,0,0,0-.3,2.967c-.017.674-.077,1.362-.135,2.028-.072.831-.147,1.69-.137,2.523a6.542,6.542,0,0,1-2.9,5.181,4.144,4.144,0,0,1-2.323.715Z" transform="translate(-329.396 -144.107)" fill="#080909"/>
    <path id="Path_8204" data-name="Path 8204" d="M2636.01,155.338a5.74,5.74,0,0,1,3.563,3.923c.7,2.988-.955,11.8-6.533,12.407-7.981.868-8.2-4.357-6.783-9.092S2629.908,152.344,2636.01,155.338Z" transform="translate(-330.48 -120.303)" fill="#f6f6f6"/>
    <path id="Path_8205" data-name="Path 8205" d="M2631,171.833a5.308,5.308,0,0,1-4.189-1.6c-2.056-2.327-1.179-6.243-.706-7.819.97-3.233,2.3-6.688,4.851-7.8a7.268,7.268,0,0,1,8.686,4.491,13.772,13.772,0,0,1-1.883,9.33,6.977,6.977,0,0,1-4.743,3.216A12.082,12.082,0,0,1,2631,171.833Zm1.776-17.361a4.281,4.281,0,0,0-1.728.35c-2.461,1.074-3.769,4.473-4.724,7.656-.959,3.205-.715,6.047.658,7.6,1.2,1.363,3.222,1.816,6,1.344a6.761,6.761,0,0,0,4.591-3.117,13.511,13.511,0,0,0,1.85-9.152,5.659,5.659,0,0,0-3.488-3.84l-.015-.006a7.214,7.214,0,0,0-3.141-.836Z" transform="translate(-330.438 -120.171)" fill="#080909"/>
    <path id="Path_8206" data-name="Path 8206" d="M2685.142,496.706s.914,6.042,2.483,7.991a15.48,15.48,0,0,1,2.122,2.665c.984,1.84.44,4.582-.286,6.091-.372.775.026.772-.822,1.022a5.287,5.287,0,0,1-6.252-2.8,13.684,13.684,0,0,1-1.227-5.148c-.268-5.485-2.056-8.275-2.056-8.275Z" transform="translate(-359.547 -306.169)" fill="#f6f6f6"/>
    <path id="Path_8207" data-name="Path 8207" d="M2686.969,514.7a5.407,5.407,0,0,1-4.9-3.085,13.842,13.842,0,0,1-1.237-5.214c-.264-5.409-2.021-8.224-2.039-8.254l-.084-.132,6.312-1.622.019.124c.008.05.772,5.051,2.069,7.38a.113.113,0,0,1-.044.154h0a.113.113,0,0,1-.154-.044v0c-1.2-2.157-1.948-6.539-2.076-7.333l-5.772,1.483a19.24,19.24,0,0,1,2,8.233,13.623,13.623,0,0,0,1.217,5.129,5.193,5.193,0,0,0,6.117,2.752c.5-.148.5-.17.553-.386a2.442,2.442,0,0,1,.2-.582c.665-1.388,1.29-4.135.288-6.015a9.707,9.707,0,0,0-1.537-2.013.113.113,0,1,1,.166-.154,9.9,9.9,0,0,1,1.571,2.061c1.041,1.955.4,4.79-.284,6.22a2.2,2.2,0,0,0-.183.533c-.069.307-.132.383-.711.554A5.372,5.372,0,0,1,2686.969,514.7Z" transform="translate(-359.334 -306.001)" fill="#080909"/>
    <path id="Path_8208" data-name="Path 8208" d="M2611.845,502.866s-.563,6.936-.106,9.191c.245,1.207,1.609,3.692.984,4.828a3.1,3.1,0,0,1-1.342,1.42l-16.214.254c-.882.014-.3-.538.411-1.047a32.977,32.977,0,0,1,5.83-3.133c.243-.114,1.127-.661,1.446-.85a11.113,11.113,0,0,0,2.319-1.991c1.164-1.26,1.266-7.368,1.266-7.368Z" transform="translate(-313.717 -309.516)" fill="#f6f6f6"/>
    <path id="Path_8209" data-name="Path 8209" d="M2595,518.3c-.2,0-.452-.027-.513-.214-.052-.159.013-.406.893-1.028a33.683,33.683,0,0,1,5.848-3.1c.174-.081.708-.4,1.1-.632l.339-.2a10.963,10.963,0,0,0,2.266-1.913.114.114,0,1,1,.17.153,11.2,11.2,0,0,1-2.316,1.955l-.341.2c-.416.248-.932.557-1.118.643a32.815,32.815,0,0,0-5.812,3.083c-.851.6-.808.768-.808.77s.04.057.329.056l16.187-.25a2.986,2.986,0,0,0,1.267-1.335c.413-.742-.116-2.171-.543-3.318a10.913,10.913,0,0,1-.45-1.376c-.422-2.056.009-7.888.092-8.948l-5.167,1.229a32.2,32.2,0,0,1-.605,5.66.113.113,0,1,1-.22-.053,32.724,32.724,0,0,0,.6-5.7v-.089l5.645-1.343-.013.157c-.005.069-.557,6.855-.108,9.04a10.575,10.575,0,0,0,.44,1.342c.465,1.254.993,2.675.531,3.5a3.2,3.2,0,0,1-1.387,1.446l-.052.013-16.215.251Z" transform="translate(-313.58 -309.341)" fill="#080909"/>
    <path id="Path_8210" data-name="Path 8210" d="M2604.142,299.876c-.573.39-.843,3.375-.991,4.132q-.456,2.33-.685,4.694a33.374,33.374,0,0,0,.067,8.938c1.341,7.383,7.775,75.819,7.775,75.819l7.15.392s1.5-28.587,1.231-32.563-2.389-10.628-2.389-10.628l.712-23.082-9.024-30.322Z" transform="translate(-317.775 -197.845)" fill="#282828"/>
    <path id="Path_8211" data-name="Path 8211" d="M2601.471,525.779a15.072,15.072,0,0,0,9.229-.352c.457,1.26,1.063,2.839.742,3.75-.394,1.116-.954,1.367-1.45,1.38-3.917.1-14.346.236-17.334.275a.473.473,0,0,1-.491-.453h0a.473.473,0,0,1,.112-.327C2593.023,529.192,2601.151,525.969,2601.471,525.779Z" transform="translate(-312.33 -321.769)" fill="#1c1c1c"/>
    <path id="Path_8214" data-name="Path 8214" d="M2635.554,155.234s4.478,5.216,7.219,5.729c1.634.3,2.167,2.97,2.167,2.97s2.4-6.129-2.765-8.909C2638.126,153.212,2636.8,154.374,2635.554,155.234Z" transform="translate(-335.893 -120.074)" fill="#222"/>
    <path id="Path_8215" data-name="Path 8215" d="M2618.3,359.224a.115.115,0,0,1-.113-.1,72.835,72.835,0,0,0-2.147-8.649l-.005-.019v-.02l.711-23.063-8.973-30.154-3.683,2.508c-.187.679-2.65,9.791-1.74,16.74a.113.113,0,0,1-.1.127h0a.118.118,0,0,1-.128-.1c-.945-7.233,1.731-16.776,1.758-16.871l.011-.04.035-.024,3.975-2.707,9.073,30.49v.018l-.711,23.061a72.771,72.771,0,0,1,2.15,8.663.114.114,0,0,1-.093.131h-.021Z" transform="translate(-317.627 -197.628)" fill="#080909"/>
    <path id="Path_8216" data-name="Path 8216" d="M2617.8,420.675a2.892,2.892,0,0,1-.411-.046c-.068-.01-.127-.02-.162-.021l-6.275-.344h0c-.1,0-.105-.086-.114-.176-.579-6.143-5.7-60.4-7.444-73.557a.115.115,0,0,1,.1-.128.118.118,0,0,1,.128.1c1.738,13.148,6.853,67.273,7.442,73.542l6.177.339c.04,0,.106.012.183.024a1.706,1.706,0,0,0,.467.032c.423-.266.362-2.021.326-3.069-.013-.376-.024-.7-.014-.9q.109-2.183.214-4.365c.2-4.1.349-7.488.48-10.674.046-1.136.112-2.3.176-3.43.166-2.959.337-6.019.209-8.991a.114.114,0,0,1,.109-.119h0a.124.124,0,0,1,.119.11c.128,2.982-.045,6.049-.209,9.013-.063,1.127-.128,2.293-.175,3.427-.131,3.186-.284,6.579-.481,10.675q-.1,2.183-.214,4.366c-.01.192,0,.512.014.883.056,1.605.062,2.96-.435,3.272A.4.4,0,0,1,2617.8,420.675Z" transform="translate(-318.426 -224.536)" fill="#080909"/>
    <path id="Path_8217" data-name="Path 8217" d="M2592.5,530.768a.588.588,0,0,1-.583-.564.585.585,0,0,1,.14-.4c.58-.672,5.3-2.645,7.835-3.705.734-.307,1.313-.548,1.383-.591l.041-.024.045.012a14.9,14.9,0,0,0,9.16-.348l.109-.043.1.286c.468,1.287,1,2.744.678,3.651-.333.943-.828,1.419-1.512,1.455-.074-.008-.117-.046-.12-.108a.114.114,0,0,1,.107-.12h0c.582-.03,1.01-.457,1.308-1.3s-.245-2.309-.677-3.5l-.024-.067a15.181,15.181,0,0,1-9.147.325c-.147.071-.578.252-1.369.582-2.338.978-7.205,3.013-7.75,3.644a.36.36,0,0,0,.031.5.319.319,0,0,0,.257.095c2.5-.032,8.8-.114,13.423-.2a.114.114,0,1,1,0,.228c-4.626.081-10.927.163-13.421.2Z" transform="translate(-312.193 -321.591)" fill="#080909"/>
    <g id="rightHand">
      <path id="Path_8212" data-name="Path 8212" d="M2668.145,237.344s12.4,15.442,15.276,19.078,15.333,14.931,15.83,15.354,8.741-1.4,8.659-.347-4.266.714-4.146,1.916,8.353,7.615,7.7,8.035c-1.217.786-5.188-3.733-5.687-3.259s4.577,4.337,4.033,5.428-4.468-4.1-5.018-3.943,3.043,5.374,1.827,5.631c-.659.14-3.082-4.714-3.64-4.158s.724,4.551-.052,4.638-.627-3.49-2.106-5.121-1.716-3.568-4.82-5.478-16.725-8.248-21.583-13.972-13.8-17.127-13.8-17.127Z" transform="translate(-349.508 -165.305)" fill="#f6f6f6"/>
      <path id="Path_8218" data-name="Path 8218" d="M2693.68,273.844a.126.126,0,0,1-.054-.014l-1.3-.7c-5.381-2.861-14.387-7.649-18.174-12.11-4.8-5.66-13.711-17.016-13.8-17.13l-.066-.085.08-.071,7.613-6.756.075.094s3.689,4.595,7.51,9.361a.114.114,0,0,1-.178.143h0c-3.5-4.369-6.893-8.592-7.435-9.267l-7.353,6.526c.829,1.055,9.147,11.64,13.729,17.038,3.758,4.428,12.74,9.2,18.107,12.056.465.248.9.48,1.305.7a.115.115,0,0,1-.054.215Z" transform="translate(-349.322 -165.108)" fill="#080909"/>
      <path id="Path_8219" data-name="Path 8219" d="M2718.613,284.459a.838.838,0,0,1-.493-.091c-.559-.476-12.94-11.7-15.845-15.371-1.271-1.607-4.371-5.483-6.747-8.447a.114.114,0,1,1,.178-.143c2.376,2.966,5.478,6.84,6.749,8.447,2.828,3.576,15.276,14.881,15.814,15.338a15.2,15.2,0,0,0,3.28-.28,29.689,29.689,0,0,1,4.625-.413.115.115,0,0,1,.106.122.112.112,0,0,1-.119.106h0a29.91,29.91,0,0,0-4.579.411A29.125,29.125,0,0,1,2718.613,284.459Z" transform="translate(-368.453 -177.808)" fill="#080909"/>
      <path id="Path_8220" data-name="Path 8220" d="M2760.718,324.274c-.574,0-1.62-1.043-3.019-2.5a10.245,10.245,0,0,0-1.7-1.593,9.156,9.156,0,0,0,.828,1.86c.123.241.251.49.377.74a.115.115,0,0,1-.2.1c-.125-.249-.252-.5-.375-.739-.616-1.2-.933-1.843-.831-2.08a.184.184,0,0,1,.119-.107c.262-.072.744.4,1.955,1.658,1.014,1.057,2.405,2.5,2.885,2.429a.137.137,0,0,0,.108-.085c.27-.543-1.282-2.112-2.416-3.258-1.066-1.077-1.668-1.7-1.663-2.035a.228.228,0,0,1,.07-.167c.267-.256.872.222,2.107,1.236s2.951,2.425,3.6,2.01c.011-.291-1.914-2.035-3.459-3.437-2.555-2.316-4.234-3.88-4.295-4.491-.073-.731,1.092-.949,2.218-1.161.854-.161,1.823-.343,1.919-.731a.111.111,0,0,1,.133-.084h0a.114.114,0,0,1,.082.137c-.134.527-1.088.707-2.1.9-.977.183-2.085.392-2.033.914.057.569,2.366,2.662,4.221,4.344,2.47,2.239,3.55,3.261,3.518,3.648a.193.193,0,0,1-.088.15c-.784.508-2.421-.839-3.865-2.024-.625-.514-1.669-1.374-1.8-1.248-.067.193.9,1.166,1.6,1.876,1.641,1.657,2.777,2.878,2.458,3.52a.364.364,0,0,1-.278.209A.453.453,0,0,1,2760.718,324.274Z" transform="translate(-400.654 -205.764)" fill="#080909"/>
      <path id="Path_8221" data-name="Path 8221" d="M2744.424,330.362c-.424,0-.587-.731-.809-1.736a7.724,7.724,0,0,0-1.351-3.427,11.144,11.144,0,0,1-1.225-1.729,9.779,9.779,0,0,0-3.57-3.728q-.15-.092-.332-.2a.114.114,0,0,1,.113-.2h0c.123.071.236.137.337.2a10.107,10.107,0,0,1,3.645,3.8,10.937,10.937,0,0,0,1.2,1.7,7.875,7.875,0,0,1,1.405,3.529c.173.777.356,1.589.6,1.553a.088.088,0,0,0,.064-.039,5.032,5.032,0,0,0-.081-2.147c-.189-1.317-.283-2.137,0-2.421a.265.265,0,0,1,.217-.077c.386.038.959.855,1.862,2.2.548.819,1.385,2.05,1.619,2.008a.167.167,0,0,0,.127-.1c.189-.383-.411-1.645-.608-2.06a.114.114,0,0,1,.053-.152h0a.113.113,0,0,1,.151.053h0c.594,1.245.774,1.919.607,2.259a.4.4,0,0,1-.285.217c-.365.079-.945-.748-1.856-2.1-.619-.92-1.388-2.066-1.694-2.1a.031.031,0,0,0-.033.011c-.224.223-.064,1.334.063,2.226.154,1.071.286,1.995.036,2.319a.315.315,0,0,1-.219.126A.37.37,0,0,1,2744.424,330.362Z" transform="translate(-391.033 -209.833)" fill="#080909"/>
    </g>
    <g id="hand">
      <path id="Path_8213" data-name="Path 8213" d="M2581.209,131.748s-4.1-8.217-7.525-15.039c-1.4-2.792-2.757-5.492-3.427-6.81-2.1-4.131-7.161-20.168-7.337-20.8s4.925-7.356,3.932-7.721-2.431,3.577-3.472,2.967-3.429-10.77-4.083-10.355c-1.222.777,1.224,6.273.585,6.528s-2.028-5.97-3.247-5.932,1.861,5.774,1.487,6.206-3.609-5.01-4.352-4.014c-.4.54,2.995,4.769,2.257,5.045s-3.832-2.559-4.236-1.891,2.909,2.028,3.772,4.053,2.525,3.049,2.964,6.668.507,18.641,3.677,25.448,9.8,19.689,9.8,19.689Z" transform="translate(-290.381 -76.578)" fill="#f6f6f6"/>
      <path id="Path_8222" data-name="Path 8222" d="M2583.1,172.075l-.05-.1c-1-1.935-2.056-4.021-3.341-6.561-.631-1.249-1.308-2.529-1.965-3.767a76.567,76.567,0,0,1-5.455-11.909.114.114,0,0,1,.073-.144h0a.116.116,0,0,1,.144.074,76.354,76.354,0,0,0,5.439,11.873c.655,1.239,1.333,2.52,1.965,3.771,1.263,2.5,2.31,4.556,3.29,6.464l9-3.953c-.744-1.489-8.9-17.812-10.9-21.736a46.452,46.452,0,0,1-2.284-5.425.114.114,0,1,1,.215-.077,46.227,46.227,0,0,0,2.275,5.4c2.081,4.093,10.861,21.668,10.949,21.845l.053.107Z" transform="translate(-301.527 -112.713)" fill="#080909"/>
      <path id="Path_8223" data-name="Path 8223" d="M2578.986,106.771a.113.113,0,0,1-.109-.078c-.657-1.957-1.318-3.975-1.965-5.992-.087-.271-.192-.537-.294-.793a3.514,3.514,0,0,1-.311-2.666,8.9,8.9,0,0,1,1.142-1.941c.2-.278.38-.54.543-.8.019-.031.055-.086.1-.162,1.754-2.692,2.063-3.616,2.013-3.918a.115.115,0,0,1,.094-.132.117.117,0,0,1,.131.095c.083.5-.586,1.838-2.047,4.08l-.1.158c-.167.264-.352.528-.548.808a8.745,8.745,0,0,0-1.113,1.888,3.337,3.337,0,0,0,.308,2.5c.1.26.21.529.3.808.646,2.018,1.307,4.032,1.965,5.989a.114.114,0,0,1-.072.144h0A.106.106,0,0,1,2578.986,106.771Z" transform="translate(-303.631 -85.437)" fill="#080909"/>
      <path id="Path_8224" data-name="Path 8224" d="M2575.615,92.974a.554.554,0,0,1-.288-.081c-.336-.2-.772-1.156-1.46-3.21a.114.114,0,0,1,.072-.144h0a.115.115,0,0,1,.145.072c.236.7.954,2.848,1.359,3.085.452.264,1.1-.654,1.678-1.465.626-.883,1.217-1.716,1.776-1.51a.3.3,0,0,1,.193.254.114.114,0,0,1-.094.132.116.116,0,0,1-.132-.094c-.01-.064-.035-.072-.045-.077-.4-.145-.988.691-1.511,1.429C2576.744,92.157,2576.164,92.974,2575.615,92.974Z" transform="translate(-302.387 -85.024)" fill="#080909"/>
      <path id="Path_8225" data-name="Path 8225" d="M2560.284,80.8h0c-.259-.006-.707-.562-1.543-1.624s-1.994-2.536-2.513-2.536a.152.152,0,0,0-.146.076c-.145.194.634,1.467,1.148,2.31.331.541.673,1.1.909,1.559a.114.114,0,0,1-.05.154h0a.112.112,0,0,1-.152-.047v0c-.233-.451-.573-1.005-.9-1.545-.851-1.393-1.361-2.263-1.136-2.566a.394.394,0,0,1,.323-.167h.006c.583,0,1.484,1.087,2.691,2.623a9.021,9.021,0,0,0,1.345,1.53,10.279,10.279,0,0,0-.737-2.214c-.77-1.954-1.291-3.373-.98-3.845a.367.367,0,0,1,.306-.165c.713-.016,1.351,1.521,2.171,3.7a7.481,7.481,0,0,0,1.04,2.239c.167-.067-.177-1.377-.383-2.161-.475-1.807-1.013-3.857-.225-4.357a.194.194,0,0,1,.173-.017c.365.133.842,1.541,1.845,4.72.179.57.362,1.148.543,1.708a.114.114,0,0,1-.218.07c-.183-.559-.365-1.139-.543-1.709-.628-1.99-1.409-4.467-1.706-4.575-.619.407-.058,2.543.351,4.1s.585,2.294.243,2.432a.229.229,0,0,1-.183-.006c-.3-.134-.621-.943-1.155-2.363-.564-1.5-1.337-3.555-1.941-3.555h-.008a.137.137,0,0,0-.123.062c-.269.411.466,2.274,1,3.635.639,1.629.868,2.264.69,2.47A.183.183,0,0,1,2560.284,80.8Z" transform="translate(-292.6 -76.445)" fill="#080909"/>
      <path id="Path_8226" data-name="Path 8226" d="M2555.4,90.866a.114.114,0,0,1-.1-.067,7.9,7.9,0,0,0-2.522-2.6c-.845-.642-1.456-1.105-1.218-1.5a.316.316,0,0,1,.206-.147c.4-.091,1.184.415,2.092,1,.758.488,1.7,1.1,2,.987a.119.119,0,0,1,.16.041.111.111,0,0,1-.037.153h0a.485.485,0,0,1-.046.02c-.373.138-1.08-.288-2.2-1.01-.756-.488-1.609-1.034-1.919-.97a.086.086,0,0,0-.062.041c-.132.218.525.717,1.16,1.2A8.072,8.072,0,0,1,2555.5,90.7a.115.115,0,0,1-.057.151A.109.109,0,0,1,2555.4,90.866Z" transform="translate(-290.244 -83.4)" fill="#080909"/>
      <path id="Path_8227" data-name="Path 8227" d="M2565.546,124.137a.114.114,0,0,1-.111-.088,70.71,70.71,0,0,1-1.447-12.692c-.137-2.559-.274-5.208-.589-7.777a9.789,9.789,0,0,0-1.9-4.8c-.194-.29-.376-.564-.551-.855a.114.114,0,0,1,.2-.118c.172.286.353.558.545.846a10.111,10.111,0,0,1,1.933,4.9c.313,2.579.454,5.229.59,7.793a70.515,70.515,0,0,0,1.441,12.65.114.114,0,0,1-.084.137A.091.091,0,0,1,2565.546,124.137Z" transform="translate(-295.365 -89.489)" fill="#080909"/>
    </g>
    <path id="Path_8228" data-name="Path 8228" d="M2647.8,164.9l-.085-.2a1.943,1.943,0,0,1-.091-.3c-.014-.059-.028-.118-.046-.174-.3-.986-.888-2.2-1.949-2.4a5.343,5.343,0,0,1-2.839-1.537,8.94,8.94,0,0,0-1.132-.962c-.255-.194-.52-.395-.765-.611a.114.114,0,0,1-.009-.161h0a.114.114,0,0,1,.16-.01c.239.212.488.4.752.6a9.1,9.1,0,0,1,1.16.987,5.105,5.105,0,0,0,2.716,1.47c.928.173,1.663,1.057,2.125,2.559.018.058.032.119.046.182a5.131,5.131,0,0,0,.188-.8c.014-.08.028-.158.042-.228a9.693,9.693,0,0,0,.172-1.371,6.971,6.971,0,0,0-.56-3.287,6.8,6.8,0,0,0-2.211-2.392c-.167-.131-.333-.262-.5-.4a2.571,2.571,0,0,0-.3-.208.114.114,0,0,1-.041-.156h0a.113.113,0,0,1,.155-.041h0a2.557,2.557,0,0,1,.328.228c.163.133.329.263.494.393a7.077,7.077,0,0,1,2.277,2.476,7.193,7.193,0,0,1,.58,3.393,9.887,9.887,0,0,1-.176,1.4c-.014.07-.028.146-.042.226a3.312,3.312,0,0,1-.343,1.142Z" transform="translate(-338.77 -120.82)" fill="#080909"/>
    <path id="Path_8229" data-name="Path 8229" d="M2636.778,156.33a.11.11,0,0,1-.073-.026l-.2-.162a3.386,3.386,0,0,1-.74-.713c-.013-.023-.042-.06-.076-.105-.193-.256-.336-.463-.274-.62a.178.178,0,0,1,.049-.072.216.216,0,0,1,.119-.051,4.1,4.1,0,0,1,4.066-.959.114.114,0,0,1,.081.137.113.113,0,0,1-.138.081h0a3.858,3.858,0,0,0-3.846.91.212.212,0,0,1-.124.055,2.216,2.216,0,0,0,.253.38c.041.053.074.1.091.126a3.3,3.3,0,0,0,.685.652c.068.056.137.11.2.164a.114.114,0,0,1,.016.159h0A.113.113,0,0,1,2636.778,156.33Z" transform="translate(-335.811 -119.731)" fill="#080909"/>
    <path id="Path_8230" data-name="Path 8230" d="M2626.516,293.075l.02.013a4.126,4.126,0,0,1,1.169,1.349,42.173,42.173,0,0,1,4.952,10.361c3.734,12.5-.946,26.3,2.569,38.861,1.182,4.225,3.253,8.138,4.864,12.219,3.6,9.121,4.879,18.966,6.126,28.692a1.168,1.168,0,0,1-1.222,1.565c-1.371.249-4.706,1.521-5.6.368a16.147,16.147,0,0,1-.982-2.619c-.312-.667-1.243-1.857-1.243-2.593q-1.247-2.964-2.477-5.936-2.46-5.944-4.853-11.913-4.787-11.941-9.307-23.986-1.265-3.372-2.51-6.752c-5.071-13.778-9.919-27.813-11.4-42.421l18.13,2.3A4.316,4.316,0,0,1,2626.516,293.075Z" transform="translate(-320.178 -194.057)" fill="#222"/>
    <path id="Path_8231" data-name="Path 8231" d="M2632.064,383.414a.115.115,0,0,1-.106-.072l-2.03-5a.666.666,0,0,1-.034-.086l-7.437-21.1a10.863,10.863,0,0,0-1.22-3.76c-.266-.589-.517-1.142-.685-1.622l-.868-2.462a.114.114,0,0,1,.068-.145h0a.115.115,0,0,1,.146.07l.868,2.462c.165.468.414,1.019.678,1.6a11.076,11.076,0,0,1,1.24,3.835l7.426,21.054a.341.341,0,0,0,.016.039l.735,1.808,1.308,3.218a.114.114,0,0,1-.062.148h0A.111.111,0,0,1,2632.064,383.414Z" transform="translate(-327.27 -226.035)" fill="#080909"/>
    <path id="Path_8232" data-name="Path 8232" d="M2611.184,313.415a.114.114,0,0,1-.108-.075c-.121-.334-.245-.667-.368-1-.427-1.152-.868-2.344-1.215-3.537a20.426,20.426,0,0,1-.573-3.225c-.074-.6-.15-1.222-.256-1.828l-1.065-6.072c-.019-.1-.066-.45-.133-.94-.21-1.534-.848-6.2-1.125-6.493a.07.07,0,0,0,.039.016l.027-.228h0l20.1,2.554.051.006.029.042c.057.083,5.658,8.333,6.99,15.093l.028.145a.114.114,0,0,1-.224.042l-.027-.142c-1.271-6.464-6.488-14.318-6.924-14.966l-19.829-2.518a45.587,45.587,0,0,1,1.085,6.417c.066.486.114.829.131.932l1.066,6.072c.107.609.183,1.234.257,1.838a20.237,20.237,0,0,0,.565,3.189c.344,1.185.785,2.373,1.21,3.521q.186.5.369,1a.115.115,0,0,1-.069.147A.113.113,0,0,1,2611.184,313.415Z" transform="translate(-320.027 -193.921)" fill="#080909"/>
    <path id="Path_8233" data-name="Path 8233" d="M2675.815,393.85a.114.114,0,0,1-.112-.1c-.252-1.5-.542-3.277-.779-5.117-.481-3.735-2.6-7.971-4.48-11.708a45.235,45.235,0,0,1-3.009-6.824c-1.5-5.179-1.347-14.392-1.216-22.516.061-3.811.119-7.411,0-10.25a.114.114,0,1,1,.229-.01c.117,2.846.059,6.449,0,10.263-.131,8.111-.279,17.3,1.207,22.449a45.081,45.081,0,0,0,2.994,6.786c1.882,3.754,4.016,8.008,4.5,11.781.237,1.837.526,3.613.777,5.109a.115.115,0,0,1-.094.131Z" transform="translate(-352.506 -219.549)" fill="#080909"/>
    <path id="Path_8234" data-name="Path 8234" d="M2662.532,462.486c-.267,0-.334-.149-.411-.377-.016-.046-.035-.1-.058-.161-.15-.379-.306-.756-.462-1.133-.1-.236-.195-.472-.291-.709L2648.7,429.08a.113.113,0,0,1,.062-.148h0a.113.113,0,0,1,.148.061v0l12.61,31.025q.144.354.291.708c.156.378.312.756.463,1.137.025.063.046.12.062.171.076.223.084.247.316.211.174-.027.357-.065.533-.1.091-.018.177-.037.26-.052l3.344-.644c.307-.059.634-.1.951-.134a8,8,0,0,0,1.489-.268c.116-.037.162-.085.125-.272-.407-2.056-.793-4.154-1.167-6.182l-.137-.734c-.451-2.444-.837-4.582-1.179-6.536a.114.114,0,0,1,.224-.041c.343,1.952.728,4.09,1.179,6.533l.137.734c.374,2.027.76,4.123,1.167,6.178a.411.411,0,0,1-.25.525l-.029.009a8.2,8.2,0,0,1-1.532.274c-.312.037-.635.074-.934.131l-3.344.644-.258.052c-.179.037-.365.076-.544.1A1.009,1.009,0,0,1,2662.532,462.486Z" transform="translate(-343.029 -269.354)" fill="#080909"/>
    <path id="Path_8235" data-name="Path 8235" d="M2597.679,211.472s-4.4-10.549-5.11-12.3c0,0,6.151-5.523,9.823-5.093,0,0,4.758,7.535,7.563,7.807s12.671.695,14.4,1.732,9.068,12.181,9.068,12.181-6.594,6.66-9.248,6.646c0,0-1.8-4.5-2.422-3.678s.091,23.011-1.142,24.342c-1.14,1.234-19.636,2.756-22.159.414,0,0-.187-.947-1.611-22.239A42.6,42.6,0,0,1,2597.679,211.472Z" transform="translate(-312.547 -141.792)" fill="#f93d3d"/>
    <path id="Path_8236" data-name="Path 8236" d="M2600.051,232.379h-.006a.115.115,0,0,1-.108-.119h0a48.228,48.228,0,0,1,.843-6.705l-2.157-5.173c-.033-.082-.072-.169-.115-.259a.114.114,0,1,1,.206-.1c.046.091.084.183.12.268q1.084,2.6,2.17,5.205l.014.033-.007.035a47.811,47.811,0,0,0-.846,6.7A.115.115,0,0,1,2600.051,232.379Z" transform="translate(-315.768 -155.862)" fill="#080909"/>
    <path id="Path_8237" data-name="Path 8237" d="M2594.118,205.614a.114.114,0,0,1-.1-.062c-.825-1.609-1.66-3.606-.786-4.771a12.388,12.388,0,0,1,3.649-2.681.114.114,0,0,1,.114.2h0a12.45,12.45,0,0,0-3.579,2.619c-.8,1.064.012,2.979.807,4.529a.114.114,0,0,1-.049.154h0A.113.113,0,0,1,2594.118,205.614Z" transform="translate(-312.703 -143.982)" fill="#080909"/>
    <path id="Path_8238" data-name="Path 8238" d="M2630.379,203.3a.1.1,0,0,1-.046-.01c-1.6-.744-7.512-1.156-11.428-1.43-1.153-.08-2.147-.149-2.779-.21-2.8-.275-7.451-7.548-7.647-7.858-.283-.447-2,.084-4.363,1.351a.117.117,0,0,1-.155-.046.115.115,0,0,1,.046-.154c1.49-.8,4.037-2.01,4.624-1.325h.005l.035.055c.194.306,4.783,7.493,7.476,7.752.626.061,1.621.13,2.773.211,3.932.274,9.875.688,11.508,1.45a.114.114,0,0,1,.056.151h0A.114.114,0,0,1,2630.379,203.3Z" transform="translate(-318.729 -141.447)" fill="#080909"/>
    <path id="Path_8239" data-name="Path 8239" d="M2670.554,237.1a.115.115,0,0,1-.07-.206,56.325,56.325,0,0,0,5.006-4.418c-.386-.584-2.878-4.34-5.175-7.5a.114.114,0,0,1,.025-.159h0a.115.115,0,0,1,.16.026c2.489,3.427,5.205,7.547,5.232,7.588l.051.077-.065.066a57.113,57.113,0,0,1-5.1,4.5A.109.109,0,0,1,2670.554,237.1Z" transform="translate(-354.76 -158.488)" fill="#080909"/>
    <path id="Path_8240" data-name="Path 8240" d="M2655.259,267.008h0a.115.115,0,0,1-.109-.119c.115-2.927.141-6.674.164-9.98.04-5.57.075-8.739.341-9.092a.327.327,0,0,1,.314-.143c.74.1,1.965,3.011,2.275,3.774a6.758,6.758,0,0,0,2.988-1.382.113.113,0,0,1,.157.029h0a.114.114,0,0,1-.029.159h0a6.63,6.63,0,0,1-3.186,1.424h-.085l-.028-.071c-.561-1.4-1.633-3.64-2.123-3.705-.031-.005-.061,0-.1.053-.233.311-.265,4.706-.295,8.955-.023,3.308-.049,7.056-.164,9.987A.114.114,0,0,1,2655.259,267.008Z" transform="translate(-346.535 -170.914)" fill="#080909"/>
    <path id="Path_8241" data-name="Path 8241" d="M2638.775,298.443a.114.114,0,0,1-.01-.228h0c3.681-.336,6.413-.841,6.8-1.257.161-.173.385-.922.544-3.5a.118.118,0,0,1,.121-.107.115.115,0,0,1,.107.122c-.176,2.873-.429,3.456-.6,3.645-.518.561-3.927,1.054-6.945,1.329Z" transform="translate(-337.582 -195.721)" fill="#080909"/>
    <path id="Path_8242" data-name="Path 8242" d="M2611.469,277.771c-3.166,0-7-.225-8.1-1.25l-.027-.025-.007-.036c-.008-.038-.2-1.174-1.575-21.679a.115.115,0,0,1,.106-.122h0a.116.116,0,0,1,.122.106c1.262,18.834,1.528,21.318,1.566,21.615,1.331,1.16,6.953,1.31,11.8,1.061a.108.108,0,0,1,.119.1.112.112,0,0,1,0,.013.114.114,0,0,1-.108.12C2614.548,277.712,2613.1,277.771,2611.469,277.771Z" transform="translate(-317.537 -174.709)" fill="#080909"/>
    <circle id="Ellipse_100" data-name="Ellipse 100" cx="0.321" cy="0.321" r="0.321" transform="translate(2298.477 40.598)" fill="#080909"/>
    <circle id="Ellipse_101" data-name="Ellipse 101" cx="0.321" cy="0.321" r="0.321" transform="translate(2302.543 42.308)" fill="#080909"/>
    <path id="Path_8243" data-name="Path 8243" d="M2633.391,177.6a1.851,1.851,0,0,1-.993-.263,2.307,2.307,0,0,1-.931-1.755.228.228,0,0,1,.457-.017,1.872,1.872,0,0,0,.717,1.384,2.424,2.424,0,0,0,2.234-.2.229.229,0,0,1,.3.113h0a.228.228,0,0,1-.114.3h0A4.142,4.142,0,0,1,2633.391,177.6Z" transform="translate(-333.674 -131.631)" fill="#080909"/>
    <g id="Group_916" data-name="Group 916" transform="translate(2279.846 196.733)">
      <g id="Path_3264" data-name="Path 3264">
        <path id="Path_8244" data-name="Path 8244" d="M2604.576,516.241s4.213-7.785-4.123-5.578l-1.948,5.305s-6.629.425-6.274,6.426c0,0-.9,3.28,5.1,2.924,0,0,16.467-.575,14.438-4.48,0,0,.586-6.106-1.822-7.743l-4.082.457Z" transform="translate(-2592.183 -510.269)" fill="#fff"/>
      </g>
    </g>
    <g id="Group_918" data-name="Group 918" transform="translate(2286.895 196.417)">
      <g id="Path_3265" data-name="Path 3265">
        <path id="Path_8245" data-name="Path 8245" d="M2612.937,515.866a.153.153,0,0,1-.073-.018.158.158,0,0,1-.066-.213c.629-1.2,1.919-4.106.312-5.294a3.47,3.47,0,0,0-2.294-.422c-.075.006-.164.011-.263.018a3.688,3.688,0,0,0-1.621.325,2.342,2.342,0,0,0-.352.889c-.041.152-.077.29-.114.389l-.539,1.467a.173.173,0,0,1-.208.108.145.145,0,0,1-.1-.179l0-.008.548-1.5c.034-.091.068-.22.1-.361a2.318,2.318,0,0,1,.449-1.045,3.665,3.665,0,0,1,1.809-.4c.1-.006.183-.012.257-.018a3.755,3.755,0,0,1,2.508.482c1.8,1.334.447,4.427-.22,5.7A.159.159,0,0,1,2612.937,515.866Z" transform="translate(-2607.611 -509.576)" fill="#151515"/>
      </g>
    </g>
    <g id="Group_919" data-name="Group 919" transform="translate(2279.668 200.468)">
      <g id="Path_3266" data-name="Path 3266">
        <path id="Path_8246" data-name="Path 8246" d="M2596.22,529.786c-1.929,0-3.252-.426-3.937-1.271a2.226,2.226,0,0,1-.441-1.854,6.13,6.13,0,0,1,.652-3.26,6.6,6.6,0,0,1,4.2-3.019,3.9,3.9,0,0,1,.573-.087,2.362,2.362,0,0,0,.81-.169c.32-.194.582-1.122.708-1.568a.157.157,0,0,1,.193-.11h0a.159.159,0,0,1,.109.2c-.2.723-.454,1.513-.848,1.752a2.476,2.476,0,0,1-.941.213,3.824,3.824,0,0,0-.523.077,6.284,6.284,0,0,0-4.009,2.865,5.82,5.82,0,0,0-.613,3.116v.026l-.007.025a1.9,1.9,0,0,0,.378,1.6c.708.868,2.284,1.258,4.556,1.123.132-.005,12.751-.476,14.316-3.156a1.061,1.061,0,0,0-.007-1.094,2.235,2.235,0,0,1,.026-1.114c.027-.172.051-.325.055-.422a17.168,17.168,0,0,0-.02-1.718.158.158,0,0,1,.147-.168h0a.156.156,0,0,1,.168.143v0a17.3,17.3,0,0,1,.02,1.75,4.385,4.385,0,0,1-.058.457,2.769,2.769,0,0,0-.058.92,1.373,1.373,0,0,1,0,1.4c-1.653,2.83-14.048,3.294-14.575,3.312Q2596.643,529.787,2596.22,529.786Z" transform="translate(-2591.794 -518.442)" fill="#151515"/>
      </g>
    </g>
    <g id="Group_920" data-name="Group 920" transform="translate(2294.291 199.245)">
      <g id="Path_3267" data-name="Path 3267">
        <path id="Path_8247" data-name="Path 8247" d="M2628.958,520.118a.158.158,0,0,1-.157-.142,6.472,6.472,0,0,0-.959-3.065c-.153-.224-.512-.748-.86-.822a2.011,2.011,0,0,0-.646.062c-.116.023-.226.046-.32.055l-2.038.229a.158.158,0,0,1-.038-.314l2.038-.228c.086-.01.187-.03.294-.051a1.4,1.4,0,0,1,1.827.893,6.759,6.759,0,0,1,1.013,3.211.158.158,0,0,1-.141.173Z" transform="translate(-2623.803 -515.767)" fill="#151515"/>
      </g>
    </g>
    <g id="Group_921" data-name="Group 921" transform="translate(2288.713 202.289)">
      <g id="Path_3268" data-name="Path 3268">
        <path id="Path_8248" data-name="Path 8248" d="M2613.855,524.66a.156.156,0,0,1-.146-.1,2.687,2.687,0,0,0-1.977-1.819.157.157,0,0,1-.14-.174h0a.159.159,0,0,1,.174-.14,2.987,2.987,0,0,1,2.235,2.013.157.157,0,0,1-.084.206h0A.162.162,0,0,1,2613.855,524.66Z" transform="translate(-2611.592 -522.428)" fill="#151515"/>
      </g>
    </g>
    <g id="Group_922" data-name="Group 922" transform="translate(2291.043 204.888)">
      <g id="Path_3269" data-name="Path 3269">
        <path id="Path_8249" data-name="Path 8249" d="M2617.037,531.276h-.012a.158.158,0,0,1-.146-.169,8.792,8.792,0,0,0-.183-2.792.158.158,0,0,1,.306-.081v0a9.075,9.075,0,0,1,.191,2.894A.159.159,0,0,1,2617.037,531.276Z" transform="translate(-2616.691 -528.118)" fill="#151515"/>
      </g>
    </g>
    <g id="Group_923" data-name="Group 923" transform="translate(2280.484 208.298)">
      <g id="Path_3270" data-name="Path 3270">
        <path id="Path_8250" data-name="Path 8250" d="M2598.074,536.552c-3.149,0-4.34-.637-4.411-.675a.157.157,0,0,1-.061-.214h0a.157.157,0,0,1,.214-.062h0c.024.013,2.437,1.279,9.457.183a.156.156,0,0,1,.18.128v0a.159.159,0,0,1-.13.183h0A34.171,34.171,0,0,1,2598.074,536.552Z" transform="translate(-2593.582 -535.581)" fill="#151515"/>
      </g>
    </g>
    <g id="Group_924" data-name="Group 924" transform="translate(2291.301 206.429)">
      <g id="Path_3271" data-name="Path 3271">
        <path id="Path_8251" data-name="Path 8251" d="M2618.69,533.813a10.75,10.75,0,0,1-1.294-.08.157.157,0,0,1-.137-.174h0a.156.156,0,0,1,.171-.138h0a9.941,9.941,0,0,0,2.193.03l.19-.017c.437-.039,1.6-.142,1.812-.427a2.623,2.623,0,0,0,.028-1.051c-.009-.108-.017-.209-.022-.3a.157.157,0,0,1,.148-.166h0a.157.157,0,0,1,.167.148h0c0,.086.013.185.022.29a2.158,2.158,0,0,1-.092,1.267c-.274.365-1.2.477-2.037.552l-.186.017A9.424,9.424,0,0,1,2618.69,533.813Z" transform="translate(-2617.257 -531.49)" fill="#151515"/>
      </g>
    </g>
    <g id="Group_925" data-name="Group 925" transform="translate(2295.725 201.585)">
      <g id="Path_3272" data-name="Path 3272">
        <path id="Path_8252" data-name="Path 8252" d="M2627.1,525.248h-.018a.158.158,0,0,1-.139-.175c.233-2.043.975-3.443,2.2-4.164a.158.158,0,0,1,.216.056h0a.158.158,0,0,1-.057.216h0c-1.139.668-1.827,1.989-2.05,3.927A.158.158,0,0,1,2627.1,525.248Z" transform="translate(-2626.941 -520.888)" fill="#151515"/>
      </g>
    </g>
    <g id="Group_926" data-name="Group 926" transform="translate(2296.602 206.865)">
      <g id="Path_3273" data-name="Path 3273">
        <path id="Path_8253" data-name="Path 8253" d="M2629.351,533.364a2.032,2.032,0,0,1-.365-.027.157.157,0,0,1,.058-.308,3.515,3.515,0,0,0,2.239-.562.157.157,0,0,1,.216.054h0a.158.158,0,0,1-.055.217A4.119,4.119,0,0,1,2629.351,533.364Z" transform="translate(-2628.859 -532.444)" fill="#151515"/>
      </g>
    </g>
    <g id="Group_929" data-name="Group 929" transform="translate(2311.049 195.572)">
      <g id="Path_3274" data-name="Path 3274">
        <path id="Path_8254" data-name="Path 8254" d="M2672.872,513.7s4.214-7.785-4.122-5.578l-1.948,5.3s-6.628.425-6.273,6.426c0,0-.9,3.28,5.1,2.924,0,0,16.467-.575,14.437-4.48,0,0,.587-6.106-1.822-7.744l-4.082.457Z" transform="translate(-2660.479 -507.726)" fill="#fff"/>
      </g>
    </g>
    <g id="Group_931" data-name="Group 931" transform="translate(2318.098 195.255)">
      <g id="Path_3275" data-name="Path 3275">
        <path id="Path_8255" data-name="Path 8255" d="M2681.233,513.323a.155.155,0,0,1-.074-.018.158.158,0,0,1-.066-.213c.628-1.2,1.919-4.107.312-5.294a3.466,3.466,0,0,0-2.294-.422c-.074.006-.162.011-.26.017a3.7,3.7,0,0,0-1.624.325,2.337,2.337,0,0,0-.352.889c-.04.152-.078.29-.114.39l-.539,1.467a.174.174,0,0,1-.208.109.146.146,0,0,1-.1-.178l0-.01.549-1.5c.033-.091.067-.22.1-.361a2.322,2.322,0,0,1,.449-1.045,3.676,3.676,0,0,1,1.813-.4l.253-.017a3.736,3.736,0,0,1,2.508.482c1.8,1.333.447,4.427-.22,5.7A.157.157,0,0,1,2681.233,513.323Z" transform="translate(-2675.908 -507.033)" fill="#151515"/>
      </g>
    </g>
    <g id="Group_932" data-name="Group 932" transform="translate(2310.871 199.307)">
      <g id="Path_3276" data-name="Path 3276">
        <path id="Path_8256" data-name="Path 8256" d="M2664.518,527.245c-1.93,0-3.253-.426-3.937-1.272a2.219,2.219,0,0,1-.441-1.853,6.117,6.117,0,0,1,.652-3.26,6.6,6.6,0,0,1,4.2-3.019,3.876,3.876,0,0,1,.572-.087,2.389,2.389,0,0,0,.812-.169c.319-.195.582-1.122.707-1.568a.157.157,0,0,1,.192-.11h0a.158.158,0,0,1,.109.2h0c-.2.722-.454,1.513-.847,1.753a2.482,2.482,0,0,1-.943.213,3.706,3.706,0,0,0-.521.077,6.289,6.289,0,0,0-4.01,2.865,5.83,5.83,0,0,0-.613,3.115v.026l-.007.025a1.9,1.9,0,0,0,.378,1.6c.707.868,2.284,1.254,4.556,1.124.131,0,12.75-.476,14.316-3.156a1.064,1.064,0,0,0-.007-1.094,2.237,2.237,0,0,1,.026-1.115c.026-.171.051-.324.054-.422a16.807,16.807,0,0,0-.02-1.718.158.158,0,0,1,.147-.168.156.156,0,0,1,.168.143v0a17.155,17.155,0,0,1,.02,1.75c-.012.153-.031.306-.059.457a2.857,2.857,0,0,0-.058.92,1.374,1.374,0,0,1,0,1.4c-1.653,2.829-14.048,3.294-14.575,3.312Q2664.94,527.245,2664.518,527.245Z" transform="translate(-2660.091 -515.901)" fill="#151515"/>
      </g>
    </g>
    <g id="Group_933" data-name="Group 933" transform="translate(2325.496 198.087)">
      <g id="Path_3277" data-name="Path 3277">
        <path id="Path_8257" data-name="Path 8257" d="M2697.256,517.579a.158.158,0,0,1-.157-.142,6.464,6.464,0,0,0-.959-3.065c-.153-.224-.511-.748-.859-.822a1.982,1.982,0,0,0-.645.062c-.116.023-.229.046-.32.055l-2.038.228a.162.162,0,0,1-.174-.137.158.158,0,0,1,.137-.175l2.038-.228c.086-.01.187-.03.294-.051a2.143,2.143,0,0,1,.772-.061,2.04,2.04,0,0,1,1.055.954,6.752,6.752,0,0,1,1.013,3.211.158.158,0,0,1-.141.173Z" transform="translate(-2692.103 -513.231)" fill="#151515"/>
      </g>
    </g>
    <g id="Group_934" data-name="Group 934" transform="translate(2319.916 201.127)">
      <g id="Path_3278" data-name="Path 3278">
        <path id="Path_8258" data-name="Path 8258" d="M2682.151,522.118a.158.158,0,0,1-.146-.1,2.685,2.685,0,0,0-1.977-1.819.158.158,0,0,1-.139-.175.16.16,0,0,1,.173-.14,2.987,2.987,0,0,1,2.236,2.013.159.159,0,0,1-.086.206A.162.162,0,0,1,2682.151,522.118Z" transform="translate(-2679.887 -519.886)" fill="#151515"/>
      </g>
    </g>
    <g id="Group_935" data-name="Group 935" transform="translate(2322.246 203.724)">
      <g id="Path_3279" data-name="Path 3279">
        <path id="Path_8259" data-name="Path 8259" d="M2685.333,528.73h-.012a.157.157,0,0,1-.146-.168h0a8.759,8.759,0,0,0-.183-2.792.159.159,0,0,1,.114-.192.157.157,0,0,1,.192.11v0a9.085,9.085,0,0,1,.191,2.894A.159.159,0,0,1,2685.333,528.73Z" transform="translate(-2684.988 -525.57)" fill="#151515"/>
      </g>
    </g>
    <g id="Group_936" data-name="Group 936" transform="translate(2311.688 207.136)">
      <g id="Path_3280" data-name="Path 3280">
        <path id="Path_8260" data-name="Path 8260" d="M2666.371,534.01c-3.15,0-4.34-.637-4.411-.675a.158.158,0,0,1,.153-.276h0c.024.013,2.436,1.279,9.457.183a.157.157,0,0,1,.182.127v.005a.158.158,0,0,1-.129.183h0A34.164,34.164,0,0,1,2666.371,534.01Z" transform="translate(-2661.879 -533.039)" fill="#151515"/>
      </g>
    </g>
    <g id="Group_937" data-name="Group 937" transform="translate(2322.504 205.268)">
      <g id="Path_3281" data-name="Path 3281">
        <path id="Path_8261" data-name="Path 8261" d="M2686.985,531.271a10.742,10.742,0,0,1-1.293-.08.157.157,0,0,1,.036-.312h0a9.886,9.886,0,0,0,2.193.03l.189-.017c.438-.039,1.6-.142,1.812-.427a2.614,2.614,0,0,0,.029-1.051c-.009-.108-.018-.209-.023-.3a.157.157,0,0,1,.148-.166h0a.154.154,0,0,1,.167.14v.009c0,.086.013.183.022.289a2.165,2.165,0,0,1-.091,1.267c-.274.365-1.2.478-2.037.552l-.183.017A9.6,9.6,0,0,1,2686.985,531.271Z" transform="translate(-2685.553 -528.949)" fill="#151515"/>
      </g>
    </g>
    <g id="Group_938" data-name="Group 938" transform="translate(2326.928 200.421)">
      <g id="Path_3282" data-name="Path 3282">
        <path id="Path_8262" data-name="Path 8262" d="M2695.4,522.7h-.018a.158.158,0,0,1-.139-.175c.233-2.043.975-3.443,2.2-4.163a.157.157,0,0,1,.215.055h0a.156.156,0,0,1-.056.215h0c-1.139.667-1.828,1.989-2.05,3.927A.158.158,0,0,1,2695.4,522.7Z" transform="translate(-2695.238 -518.34)" fill="#151515"/>
      </g>
    </g>
    <g id="Group_939" data-name="Group 939" transform="translate(2327.803 205.704)">
      <g id="Path_3283" data-name="Path 3283">
        <path id="Path_8263" data-name="Path 8263" d="M2697.646,530.822a2,2,0,0,1-.365-.027.157.157,0,0,1,.058-.308,3.521,3.521,0,0,0,2.239-.562.158.158,0,0,1,.163.271h0A4.121,4.121,0,0,1,2697.646,530.822Z" transform="translate(-2697.153 -529.903)" fill="#151515"/>
      </g>
    </g>
  </g>
</svg>
